<?xml version="1.0" encoding="UTF-8" standalone="no"?>
<svg
   width="128.07948"
   height="128.0656"
   viewBox="0 0 128.07948 128.0656"
   version="1.1"
   id="svg223"
   sodipodi:docname="erc.svg"
   inkscape:version="1.1.2 (0a00cf5339, 2022-02-04)"
   xmlns:inkscape="http://www.inkscape.org/namespaces/inkscape"
   xmlns:sodipodi="http://sodipodi.sourceforge.net/DTD/sodipodi-0.dtd"
   xmlns:xlink="http://www.w3.org/1999/xlink"
   xmlns="http://www.w3.org/2000/svg"
   xmlns:svg="http://www.w3.org/2000/svg">
  <sodipodi:namedview
     id="namedview225"
     pagecolor="#ffffff"
     bordercolor="#666666"
     borderopacity="1.0"
     inkscape:pageshadow="2"
     inkscape:pageopacity="0.0"
     inkscape:pagecheckerboard="0"
     showgrid="false"
     fit-margin-top="0"
     fit-margin-left="0"
     fit-margin-right="0"
     fit-margin-bottom="0"
     inkscape:showpageshadow="false"
     inkscape:zoom="2.5484401"
     inkscape:cx="66.511275"
     inkscape:cy="110.26353"
     inkscape:window-width="1920"
     inkscape:window-height="1011"
     inkscape:window-x="0"
     inkscape:window-y="0"
     inkscape:window-maximized="1"
     inkscape:current-layer="svg223"
     lock-margins="true" />
  <defs
     id="defs73">
    <linearGradient
       x2="1"
       gradientUnits="userSpaceOnUse"
       gradientTransform="matrix(46.46506,0,0,-46.46506,146.749,210.84)"
       id="a">
      <stop
         offset="0"
         stop-color="#f1511b"
         id="stop2" />
      <stop
         offset="1"
         stop-color="#fff"
         id="stop4" />
    </linearGradient>
    <linearGradient
       xlink:href="#a"
       id="b"
       gradientUnits="userSpaceOnUse"
       gradientTransform="matrix(58.081325,0,0,58.081325,69.993305,64.413)"
       x2="1" />
    <linearGradient
       xlink:href="#a"
       id="c"
       gradientUnits="userSpaceOnUse"
       gradientTransform="matrix(58.081325,0,0,58.081325,69.993305,64.413)"
       x2="1" />
    <linearGradient
       xlink:href="#a"
       id="d"
       gradientUnits="userSpaceOnUse"
       gradientTransform="matrix(58.081325,0,0,58.081325,69.993305,64.413)"
       x2="1" />
    <linearGradient
       xlink:href="#a"
       id="e"
       gradientUnits="userSpaceOnUse"
       gradientTransform="matrix(58.081325,0,0,58.081325,69.993305,64.413)"
       x2="1" />
    <linearGradient
       xlink:href="#a"
       id="f"
       gradientUnits="userSpaceOnUse"
       gradientTransform="matrix(58.081325,0,0,58.081325,69.993305,64.413)"
       x2="1" />
    <linearGradient
       xlink:href="#a"
       id="g"
       gradientUnits="userSpaceOnUse"
       gradientTransform="matrix(58.081325,0,0,58.081325,69.993305,64.413)"
       x2="1" />
    <linearGradient
       xlink:href="#a"
       id="h"
       gradientUnits="userSpaceOnUse"
       gradientTransform="matrix(58.081325,0,0,58.081325,69.993305,64.413)"
       x2="1" />
    <linearGradient
       xlink:href="#a"
       id="i"
       gradientUnits="userSpaceOnUse"
       gradientTransform="matrix(58.081325,0,0,58.081325,69.993305,64.413)"
       x2="1" />
    <linearGradient
       xlink:href="#a"
       id="j"
       gradientUnits="userSpaceOnUse"
       gradientTransform="matrix(58.081325,0,0,58.081325,69.993305,64.413)"
       x2="1" />
    <linearGradient
       xlink:href="#a"
       id="k"
       gradientUnits="userSpaceOnUse"
       gradientTransform="matrix(58.081325,0,0,58.081325,69.993305,64.413)"
       x2="1" />
    <linearGradient
       xlink:href="#a"
       id="l"
       gradientUnits="userSpaceOnUse"
       gradientTransform="matrix(58.081325,0,0,58.081325,69.993305,64.413)"
       x2="1" />
    <linearGradient
       xlink:href="#a"
       id="m"
       gradientUnits="userSpaceOnUse"
       gradientTransform="matrix(58.081325,0,0,58.081325,69.993305,64.413)"
       x2="1" />
    <linearGradient
       xlink:href="#a"
       id="n"
       gradientUnits="userSpaceOnUse"
       gradientTransform="matrix(58.081325,0,0,58.081325,69.993305,64.413)"
       x2="1" />
    <linearGradient
       xlink:href="#a"
       id="o"
       gradientUnits="userSpaceOnUse"
       gradientTransform="matrix(58.081325,0,0,58.081325,69.993305,64.413)"
       x2="1" />
    <linearGradient
       xlink:href="#a"
       id="p"
       gradientUnits="userSpaceOnUse"
       gradientTransform="matrix(58.081325,0,0,58.081325,69.993305,64.413)"
       x2="1" />
    <linearGradient
       xlink:href="#a"
       id="q"
       gradientUnits="userSpaceOnUse"
       gradientTransform="matrix(58.081325,0,0,58.081325,69.993305,64.413)"
       x2="1" />
    <linearGradient
       xlink:href="#a"
       id="r"
       gradientUnits="userSpaceOnUse"
       gradientTransform="matrix(58.081325,0,0,58.081325,69.993305,64.413)"
       x2="1" />
    <linearGradient
       xlink:href="#a"
       id="s"
       gradientUnits="userSpaceOnUse"
       gradientTransform="matrix(58.081325,0,0,58.081325,69.993305,64.413)"
       x2="1" />
    <linearGradient
       xlink:href="#a"
       id="t"
       gradientUnits="userSpaceOnUse"
       gradientTransform="matrix(58.081325,0,0,58.081325,69.993305,64.413)"
       x2="1" />
    <linearGradient
       xlink:href="#a"
       id="u"
       gradientUnits="userSpaceOnUse"
       gradientTransform="matrix(58.081325,0,0,58.081325,69.993305,64.413)"
       x2="1" />
    <linearGradient
       xlink:href="#a"
       id="v"
       gradientUnits="userSpaceOnUse"
       gradientTransform="matrix(58.081325,0,0,58.081325,69.993305,64.413)"
       x2="1" />
    <linearGradient
       xlink:href="#a"
       id="w"
       gradientUnits="userSpaceOnUse"
       gradientTransform="matrix(58.081325,0,0,58.081325,69.993305,64.413)"
       x2="1" />
    <linearGradient
       xlink:href="#a"
       id="x"
       gradientUnits="userSpaceOnUse"
       gradientTransform="matrix(58.081325,0,0,58.081325,69.993305,64.413)"
       x2="1" />
    <linearGradient
       xlink:href="#a"
       id="y"
       gradientUnits="userSpaceOnUse"
       gradientTransform="matrix(58.081325,0,0,58.081325,69.993305,64.413)"
       x2="1" />
    <linearGradient
       xlink:href="#a"
       id="z"
       gradientUnits="userSpaceOnUse"
       gradientTransform="matrix(58.081325,0,0,58.081325,69.993305,64.413)"
       x2="1" />
    <linearGradient
       xlink:href="#a"
       id="A"
       gradientUnits="userSpaceOnUse"
       gradientTransform="matrix(58.081325,0,0,58.081325,69.993305,64.413)"
       x2="1" />
    <linearGradient
       xlink:href="#a"
       id="B"
       gradientUnits="userSpaceOnUse"
       gradientTransform="matrix(58.081325,0,0,58.081325,69.993305,64.413)"
       x2="1" />
    <linearGradient
       xlink:href="#a"
       id="C"
       gradientUnits="userSpaceOnUse"
       gradientTransform="matrix(58.081325,0,0,58.081325,69.993305,64.413)"
       x2="1" />
    <linearGradient
       xlink:href="#a"
       id="D"
       gradientUnits="userSpaceOnUse"
       gradientTransform="matrix(58.081325,0,0,58.081325,69.993305,64.413)"
       x2="1" />
    <linearGradient
       xlink:href="#a"
       id="E"
       gradientUnits="userSpaceOnUse"
       gradientTransform="matrix(58.081325,0,0,58.081325,69.993305,64.413)"
       x2="1" />
    <linearGradient
       xlink:href="#a"
       id="F"
       gradientUnits="userSpaceOnUse"
       gradientTransform="matrix(58.081325,0,0,58.081325,69.993305,64.413)"
       x2="1" />
    <linearGradient
       xlink:href="#a"
       id="G"
       gradientUnits="userSpaceOnUse"
       gradientTransform="matrix(58.081325,0,0,58.081325,69.993305,64.413)"
       x2="1" />
    <linearGradient
       xlink:href="#a"
       id="H"
       gradientUnits="userSpaceOnUse"
       gradientTransform="matrix(58.081325,0,0,58.081325,69.993305,64.413)"
       x2="1" />
    <linearGradient
       xlink:href="#a"
       id="I"
       gradientUnits="userSpaceOnUse"
       gradientTransform="matrix(58.081325,0,0,58.081325,69.993305,64.413)"
       x2="1" />
    <linearGradient
       xlink:href="#a"
       id="J"
       gradientUnits="userSpaceOnUse"
       gradientTransform="matrix(58.081325,0,0,58.081325,69.993305,64.413)"
       x2="1" />
    <linearGradient
       xlink:href="#a"
       id="K"
       gradientUnits="userSpaceOnUse"
       gradientTransform="matrix(58.081325,0,0,58.081325,69.993305,64.413)"
       x2="1" />
    <linearGradient
       xlink:href="#a"
       id="L"
       gradientUnits="userSpaceOnUse"
       gradientTransform="matrix(58.081325,0,0,58.081325,69.993305,64.413)"
       x2="1" />
    <linearGradient
       xlink:href="#a"
       id="M"
       gradientUnits="userSpaceOnUse"
       gradientTransform="matrix(58.081325,0,0,58.081325,69.993305,64.413)"
       x2="1" />
    <linearGradient
       xlink:href="#a"
       id="N"
       gradientUnits="userSpaceOnUse"
       gradientTransform="matrix(58.081325,0,0,58.081325,69.993305,64.413)"
       x2="1" />
    <linearGradient
       xlink:href="#a"
       id="O"
       gradientUnits="userSpaceOnUse"
       gradientTransform="matrix(58.081325,0,0,58.081325,69.993305,64.413)"
       x2="1" />
    <linearGradient
       xlink:href="#a"
       id="P"
       gradientUnits="userSpaceOnUse"
       gradientTransform="matrix(58.081325,0,0,58.081325,69.993305,64.413)"
       x2="1" />
    <linearGradient
       xlink:href="#a"
       id="Q"
       gradientUnits="userSpaceOnUse"
       gradientTransform="matrix(58.081325,0,0,58.081325,69.993305,64.413)"
       x2="1" />
    <linearGradient
       xlink:href="#a"
       id="R"
       gradientUnits="userSpaceOnUse"
       gradientTransform="matrix(58.081325,0,0,58.081325,69.993305,64.413)"
       x2="1" />
    <linearGradient
       xlink:href="#a"
       id="S"
       gradientUnits="userSpaceOnUse"
       gradientTransform="matrix(58.081325,0,0,58.081325,69.993305,64.413)"
       x2="1" />
    <linearGradient
       xlink:href="#a"
       id="T"
       gradientUnits="userSpaceOnUse"
       gradientTransform="matrix(58.081325,0,0,58.081325,69.993305,64.413)"
       x2="1" />
    <linearGradient
       xlink:href="#a"
       id="U"
       gradientUnits="userSpaceOnUse"
       gradientTransform="matrix(58.081325,0,0,58.081325,69.993305,64.413)"
       x2="1" />
    <linearGradient
       xlink:href="#a"
       id="V"
       gradientUnits="userSpaceOnUse"
       gradientTransform="matrix(58.081325,0,0,58.081325,69.993305,64.413)"
       x2="1" />
    <linearGradient
       xlink:href="#a"
       id="W"
       gradientUnits="userSpaceOnUse"
       gradientTransform="matrix(58.081325,0,0,58.081325,69.993305,64.413)"
       x2="1" />
    <linearGradient
       xlink:href="#a"
       id="X"
       gradientUnits="userSpaceOnUse"
       gradientTransform="matrix(58.081325,0,0,58.081325,69.993305,64.413)"
       x2="1" />
    <linearGradient
       xlink:href="#a"
       id="Y"
       gradientUnits="userSpaceOnUse"
       gradientTransform="matrix(58.081325,0,0,58.081325,69.993305,64.413)"
       x2="1" />
    <linearGradient
       xlink:href="#a"
       id="Z"
       gradientUnits="userSpaceOnUse"
       gradientTransform="matrix(58.081325,0,0,58.081325,69.993305,64.413)"
       x2="1" />
    <linearGradient
       xlink:href="#a"
       id="aa"
       gradientUnits="userSpaceOnUse"
       gradientTransform="matrix(58.081325,0,0,58.081325,69.993305,64.413)"
       x2="1" />
    <linearGradient
       xlink:href="#a"
       id="ab"
       gradientUnits="userSpaceOnUse"
       gradientTransform="matrix(58.081325,0,0,58.081325,69.993305,64.413)"
       x2="1" />
    <linearGradient
       xlink:href="#a"
       id="ac"
       gradientUnits="userSpaceOnUse"
       gradientTransform="matrix(58.081325,0,0,58.081325,69.993305,64.413)"
       x2="1" />
    <linearGradient
       xlink:href="#a"
       id="ad"
       gradientUnits="userSpaceOnUse"
       gradientTransform="matrix(58.081325,0,0,58.081325,69.993305,64.413)"
       x2="1" />
    <linearGradient
       xlink:href="#a"
       id="ae"
       gradientUnits="userSpaceOnUse"
       gradientTransform="matrix(58.081325,0,0,58.081325,69.993305,64.413)"
       x2="1" />
    <linearGradient
       xlink:href="#a"
       id="af"
       gradientUnits="userSpaceOnUse"
       gradientTransform="matrix(58.081325,0,0,58.081325,69.993305,64.413)"
       x2="1" />
    <linearGradient
       xlink:href="#a"
       id="ag"
       gradientUnits="userSpaceOnUse"
       gradientTransform="matrix(58.081325,0,0,58.081325,69.993305,64.413)"
       x2="1" />
    <linearGradient
       xlink:href="#a"
       id="ah"
       gradientUnits="userSpaceOnUse"
       gradientTransform="matrix(58.081325,0,0,58.081325,69.993305,64.413)"
       x2="1" />
    <linearGradient
       xlink:href="#a"
       id="ai"
       gradientUnits="userSpaceOnUse"
       gradientTransform="matrix(58.081325,0,0,58.081325,69.993305,64.413)"
       x2="1" />
    <linearGradient
       xlink:href="#a"
       id="aj"
       gradientUnits="userSpaceOnUse"
       gradientTransform="matrix(58.081325,0,0,58.081325,69.993305,64.413)"
       x2="1" />
    <linearGradient
       xlink:href="#a"
       id="ak"
       gradientUnits="userSpaceOnUse"
       gradientTransform="matrix(58.081325,0,0,58.081325,69.993305,64.413)"
       x2="1" />
    <linearGradient
       xlink:href="#a"
       id="al"
       gradientUnits="userSpaceOnUse"
       gradientTransform="matrix(58.081325,0,0,58.081325,69.993305,64.413)"
       x2="1" />
    <linearGradient
       xlink:href="#a"
       id="am"
       gradientUnits="userSpaceOnUse"
       gradientTransform="matrix(58.081325,0,0,58.081325,69.993305,64.413)"
       x2="1" />
    <linearGradient
       xlink:href="#a"
       id="an"
       gradientUnits="userSpaceOnUse"
       gradientTransform="matrix(58.081325,0,0,58.081325,69.993305,64.413)"
       x2="1" />
    <linearGradient
       xlink:href="#a"
       id="ao"
       gradientUnits="userSpaceOnUse"
       gradientTransform="matrix(58.081325,0,0,58.081325,69.993305,64.413)"
       x2="1" />
  </defs>
  <path
     d="m 98.852055,11.606752 a 1.10875,1.10875 0 0 0 0.28125,1.54625 1.1125,1.1125 0 1 0 1.268745,-1.8275 1.11,1.11 0 0 0 -1.549995,0.28125"
     fill="url(#b)"
     id="path77"
     style="fill:url(#b);stroke-width:1.25" />
  <path
     d="m 99.644555,19.246752 a 1.3875,1.3875 0 0 0 -0.025,1.9625 1.39125,1.39125 0 0 0 1.964995,0.025 c 0.5475,-0.53625 0.55875,-1.4175 0.0225,-1.96625 a 1.38125,1.38125 0 0 0 -1.962495,-0.02125"
     fill="url(#c)"
     id="path79"
     style="fill:url(#c);stroke-width:1.25" />
  <path
     d="m 108.1858,19.179252 a 1.1125,1.1125 0 1 0 1.55375,1.5925 1.1125,1.1125 0 0 0 0.0225,-1.5725 1.115,1.115 0 0 0 -1.57625,-0.02"
     fill="url(#d)"
     id="path81"
     style="fill:url(#d);stroke-width:1.25" />
  <path
     d="m 90.593305,20.243002 a 2.16625,2.16625 0 0 0 0.595,3.0075 2.16875,2.16875 0 0 0 2.4175,-3.6 2.16375,2.16375 0 0 0 -3.0125,0.5925"
     fill="url(#e)"
     id="path83"
     style="fill:url(#e);stroke-width:1.25" />
  <path
     d="m 98.724555,26.353002 a 2.165,2.165 0 0 0 -0.0162,3.06375 2.175,2.175 0 0 0 3.073745,0.015 2.175,2.175 0 0 0 0.0112,-3.0675 2.165,2.165 0 0 0 -3.068745,-0.01125"
     fill="url(#f)"
     id="path85"
     style="fill:url(#f);stroke-width:1.25" />
  <path
     d="m 107.4358,26.744252 a 1.3925,1.3925 0 0 0 1.53625,2.32 1.39,1.39 0 1 0 -0.77,-2.55 c -0.26375,0 -0.53,0.07375 -0.76625,0.23"
     fill="url(#g)"
     id="path87"
     style="fill:url(#g);stroke-width:1.25" />
  <path
     d="m 90.203305,28.168002 a 2.28,2.28 0 0 0 -0.0162,3.22875 2.2808925,2.2808925 0 1 0 3.2425,-3.20875 2.275,2.275 0 0 0 -1.62375,-0.67875 c -0.58,0 -1.15875,0.21875 -1.6025,0.65875"
     fill="url(#h)"
     id="path89"
     style="fill:url(#h);stroke-width:1.25" />
  <path
     d="m 115.7633,28.179252 a 1.11,1.11 0 0 0 -0.30875,1.54125 1.10625,1.10625 0 0 0 1.54125,0.31 c 0.5075,-0.3375 0.6475,-1.03 0.3125,-1.5375 a 1.1075,1.1075 0 0 0 -0.92875,-0.5 1.12125,1.12125 0 0 0 -0.61625,0.18625"
     fill="url(#i)"
     id="path91"
     style="fill:url(#i);stroke-width:1.25" />
  <path
     d="m 82.917055,31.396752 a 2.67875,2.67875 0 0 0 0.72125,3.72125 2.68125,2.68125 0 0 0 2.995,-4.445 2.65875,2.65875 0 0 0 -1.495,-0.4575 2.67,2.67 0 0 0 -2.22125,1.18125"
     fill="url(#j)"
     id="path93"
     style="fill:url(#j);stroke-width:1.25" />
  <path
     d="m 96.724555,34.036752 a 2.2825,2.2825 0 1 0 2.5125,3.81125 2.28125,2.28125 0 0 0 0.64875,-3.1625 c -0.4375,-0.665 -1.16625,-1.02625 -1.90875,-1.02625 -0.43,0 -0.86625,0.12125 -1.2525,0.3775"
     fill="url(#k)"
     id="path95"
     style="fill:url(#k);stroke-width:1.25" />
  <path
     d="m 105.84705,34.449252 a 2.1675,2.1675 0 0 0 -0.655,2.9975 2.16625,2.16625 0 0 0 2.9975,0.65375 2.1725,2.1725 0 0 0 0.66,-2.9925 2.17875,2.17875 0 0 0 -1.835,-1.00125 c -0.4,0 -0.805,0.11125 -1.1675,0.3425"
     fill="url(#l)"
     id="path97"
     style="fill:url(#l);stroke-width:1.25" />
  <path
     d="m 88.749555,35.559252 a 2.68,2.68 0 0 0 0.009,3.79 2.675,2.675 0 0 0 3.78875,-0.0075 2.675,2.675 0 0 0 -0.008,-3.79 2.66625,2.66625 0 0 0 -1.89125,-0.78125 c -0.6875,0 -1.375,0.2625 -1.89875,0.78875"
     fill="url(#m)"
     id="path99"
     style="fill:url(#m);stroke-width:1.25" />
  <path
     d="m 77.808305,37.640502 a 3.06875,3.06875 0 0 0 0.8475,4.265 3.08,3.08 0 0 0 4.26875,-0.8475 3.08125,3.08125 0 0 0 -0.8475,-4.26875 3.08125,3.08125 0 0 0 -4.26875,0.85125"
     fill="url(#n)"
     id="path101"
     style="fill:url(#n);stroke-width:1.25" />
  <path
     d="m 114.16455,36.439252 a 1.4,1.4 0 0 0 -0.78125,1.8075 1.395,1.395 0 0 0 1.80875,0.77625 c 0.71375,-0.2825 1.06,-1.09125 0.77625,-1.80375 a 1.39,1.39 0 0 0 -1.80375,-0.78"
     fill="url(#o)"
     id="path103"
     style="fill:url(#o);stroke-width:1.25" />
  <path
     d="m 121.69705,38.795502 a 1.1125,1.1125 0 1 0 0.84875,2.05625 1.1125,1.1125 0 1 0 -0.425,-2.14125 1.105,1.105 0 0 0 -0.42375,0.085"
     fill="url(#p)"
     id="path105"
     style="fill:url(#p);stroke-width:1.25" />
  <path
     d="m 93.979555,40.979252 a 2.678724,2.678724 0 1 0 2.915,4.495 2.6825,2.6825 0 0 0 0.7925,-3.70625 2.68625,2.68625 0 0 0 -2.25375,-1.22125 c -0.5,0 -1.005,0.14 -1.45375,0.4325"
     fill="url(#q)"
     id="path107"
     style="fill:url(#q);stroke-width:1.25" />
  <path
     d="m 101.9408,41.018002 a 2.2822389,2.2822389 0 1 0 1.72125,4.2275 2.275,2.275 0 0 0 1.25,-2.97375 2.27625,2.27625 0 0 0 -2.97125,-1.25375"
     fill="url(#r)"
     id="path109"
     style="fill:url(#r);stroke-width:1.25" />
  <path
     d="m 110.3808,42.218002 a 2.1697117,2.1697117 0 1 0 1.6675,4.00625 2.175,2.175 0 0 0 1.17,-2.835 2.1725,2.1725 0 0 0 -2.8375,-1.17125"
     fill="url(#s)"
     id="path111"
     style="fill:url(#s);stroke-width:1.25" />
  <path
     d="m 72.312055,43.794252 a 3.5825,3.5825 0 0 0 0.42125,5.0525 3.58,3.58 0 0 0 5.05125,-0.42125 3.58375,3.58375 0 0 0 -0.41875,-5.05125 3.58,3.58 0 0 0 -2.3175,-0.85 3.57125,3.57125 0 0 0 -2.73625,1.27"
     fill="url(#t)"
     id="path113"
     style="fill:url(#t);stroke-width:1.25" />
  <path
     d="m 85.513305,43.431752 a 3.06875,3.06875 0 0 0 -0.54625,4.31375 3.075,3.075 0 0 0 4.3175,0.5475 3.0775,3.0775 0 0 0 0.54375,-4.315 3.07125,3.07125 0 0 0 -4.315,-0.54625"
     fill="url(#u)"
     id="path115"
     style="fill:url(#u);stroke-width:1.25" />
  <path
     d="m 118.2883,45.841752 a 1.38375,1.38375 0 0 0 -1.08375,1.63625 1.3875,1.3875 0 0 0 1.63625,1.0875 c 0.75125,-0.15 1.24,-0.88375 1.085,-1.635 -0.13,-0.6625 -0.70875,-1.11625 -1.35875,-1.11625 -0.0913,0 -0.185,0.0087 -0.27875,0.0275"
     fill="url(#v)"
     id="path117"
     style="fill:url(#v);stroke-width:1.25" />
  <path
     d="m 97.563305,46.784252 a 2.68125,2.68125 0 0 0 2.125,4.9225 2.68375,2.68375 0 0 0 1.398745,-3.5225 2.6775,2.6775 0 0 0 -2.461245,-1.62 c -0.355,0 -0.715,0.07 -1.0625,0.22"
     fill="url(#w)"
     id="path119"
     style="fill:url(#w);stroke-width:1.25" />
  <path
     d="m 105.5983,48.616752 a 2.2825,2.2825 0 0 0 -1.79125,2.68375 2.27875,2.27875 0 0 0 2.68375,1.7925 2.28375,2.28375 0 0 0 1.7925,-2.6875 2.285,2.285 0 0 0 -2.23625,-1.83375 c -0.1475,0 -0.29875,0.015 -0.44875,0.045"
     fill="url(#x)"
     id="path121"
     style="fill:url(#x);stroke-width:1.25" />
  <path
     d="m 80.073305,49.189252 a 3.5875,3.5875 0 0 0 -1.76625,4.7525 3.5875,3.5875 0 0 0 4.755,1.76625 3.57875,3.57875 0 0 0 1.7625,-4.7525 3.585,3.585 0 0 0 -3.26,-2.09375 c -0.49875,0 -1.00625,0.105 -1.49125,0.3275"
     fill="url(#y)"
     id="path123"
     style="fill:url(#y);stroke-width:1.25" />
  <path
     d="m 125.3408,49.766752 a 1.10375,1.10375 0 0 0 -0.85625,1.3175 1.11125,1.11125 0 0 0 2.1725,-0.46125 1.11,1.11 0 0 0 -1.085,-0.88125 1.0475,1.0475 0 0 0 -0.23125,0.025"
     fill="url(#z)"
     id="path125"
     style="fill:url(#z);stroke-width:1.25" />
  <path
     d="m 113.63705,51.253002 a 2.1675,2.1675 0 0 0 -1.67875,2.56625 2.175,2.175 0 0 0 2.5725,1.68 2.175,2.175 0 0 0 1.67625,-2.5675 2.1725,2.1725 0 0 0 -2.1225,-1.72625 2.1125,2.1125 0 0 0 -0.4475,0.0475"
     fill="url(#A)"
     id="path127"
     style="fill:url(#A);stroke-width:1.25" />
  <path
     d="m 91.295805,52.038002 a 3.06875,3.06875 0 0 0 -1.97875,3.87125 3.07,3.07 0 0 0 3.8675,1.98375 3.08125,3.08125 0 0 0 1.98625,-3.8725 3.07875,3.07875 0 0 0 -2.9275,-2.1325 c -0.31375,0 -0.6325,0.0475 -0.9475,0.15"
     fill="url(#B)"
     id="path129"
     style="fill:url(#B);stroke-width:1.25" />
  <path
     d="m 100.1008,53.814252 a 2.675,2.675 0 0 0 -2.004995,3.21625 2.67875,2.67875 0 0 0 3.217495,2.005 2.68,2.68 0 0 0 1.99875,-3.2175 2.675,2.675 0 0 0 -2.60125,-2.075 c -0.20125,0 -0.405,0.02375 -0.61,0.07125"
     fill="url(#C)"
     id="path131"
     style="fill:url(#C);stroke-width:1.25" />
  <path
     d="m 120.6533,55.716752 a 1.39,1.39 0 1 0 0.0588,2.77875 1.395,1.395 0 0 0 1.36125,-1.4175 1.39375,1.39375 0 0 0 -1.39,-1.3625 l -0.03,0.0012"
     fill="url(#D)"
     id="path133"
     style="fill:url(#D);stroke-width:1.25" />
  <path
     d="m 81.195805,60.946752 a 3.58375,3.58375 0 0 0 3.5475,3.62125 3.58375,3.58375 0 0 0 3.6225,-3.54875 3.5825,3.5825 0 0 0 -3.54625,-3.62125 h -0.0375 a 3.58125,3.58125 0 0 0 -3.58625,3.54875"
     fill="url(#E)"
     id="path135"
     style="fill:url(#E);stroke-width:1.25" />
  <path
     d="m 105.5608,59.680502 a 2.28,2.28 0 0 0 2.2675,2.29875 2.28125,2.28125 0 0 0 2.29875,-2.265 2.2875,2.2875 0 0 0 -2.2675,-2.3 h -0.015 c -1.25,0 -2.2775,1.01 -2.28375,2.26625"
     fill="url(#F)"
     id="path137"
     style="fill:url(#F);stroke-width:1.25" />
  <path
     d="m 115.18955,61.338002 a 2.1625,2.1625 0 0 0 -2.1525,2.1825 2.1625,2.1625 0 0 0 2.1825,2.15375 c 1.2,-0.01 2.16375,-0.985 2.1575,-2.1825 a 2.17125,2.17125 0 0 0 -2.1725,-2.15375 h -0.015"
     fill="url(#G)"
     id="path139"
     style="fill:url(#G);stroke-width:1.25" />
  <path
     d="m 90.834555,64.536752 a 3.0725,3.0725 0 0 0 3.0075,3.14375 3.0675,3.0675 0 0 0 3.14,-3.005 3.075,3.075 0 0 0 -3.0025,-3.14625 l -0.0712,-0.0012 a 3.075,3.075 0 0 0 -3.07375,3.00875"
     fill="url(#H)"
     id="path141"
     style="fill:url(#H);stroke-width:1.25" />
  <path
     d="m 98.974555,64.404252 a 2.68125,2.68125 0 0 0 2.656245,2.7025 2.68375,2.68375 0 0 0 2.7075,-2.65875 2.68125,2.68125 0 0 0 -2.665,-2.7 h -0.0237 a 2.67625,2.67625 0 0 0 -2.674995,2.65625"
     fill="url(#I)"
     id="path143"
     style="fill:url(#I);stroke-width:1.25" />
  <path
     d="m 126.95205,62.084252 a 1.11125,1.11125 0 0 0 0.0213,2.22125 1.1106341,1.1106341 0 1 0 -0.009,-2.22125 h -0.0125"
     fill="url(#J)"
     id="path145"
     style="fill:url(#J);stroke-width:1.25" />
  <path
     d="m 80.875805,68.336752 a 3.58625,3.58625 0 0 0 6.4875,3.0525 3.58375,3.58375 0 0 0 -1.72,-4.77125 3.57875,3.57875 0 0 0 -4.7675,1.71875"
     fill="url(#K)"
     id="path147"
     style="fill:url(#K);stroke-width:1.25" />
  <path
     d="m 105.5208,68.786752 a 2.2825,2.2825 0 0 0 4.44875,1.0175 2.2825,2.2825 0 0 0 -1.715,-2.73375 2.275,2.275 0 0 0 -2.73375,1.71625"
     fill="url(#L)"
     id="path149"
     style="fill:url(#L);stroke-width:1.25" />
  <path
     d="m 119.5158,68.828002 a 1.3900113,1.3900113 0 1 0 2.73,0.525 1.3875,1.3875 0 0 0 -1.10375,-1.6275 1.39,1.39 0 0 0 -1.62625,1.1025"
     fill="url(#M)"
     id="path151"
     style="fill:url(#M);stroke-width:1.25" />
  <path
     d="m 98.229555,71.238002 a 2.675,2.675 0 0 0 2.078745,3.16875 2.68125,2.68125 0 0 0 1.08875,-5.24875 2.6775,2.6775 0 0 0 -3.167495,2.08"
     fill="url(#N)"
     id="path153"
     style="fill:url(#N);stroke-width:1.25" />
  <path
     d="m 89.553305,72.243002 a 3.0725,3.0725 0 0 0 1.97375,3.87625 3.0759862,3.0759862 0 1 0 1.90375,-5.85 3.0725,3.0725 0 0 0 -3.8775,1.97375"
     fill="url(#O)"
     id="path155"
     style="fill:url(#O);stroke-width:1.25" />
  <path
     d="m 112.02705,73.949252 a 2.165,2.165 0 0 0 1.67875,2.5675 2.17375,2.17375 0 0 0 2.56875,-1.675 2.17375,2.17375 0 0 0 -1.6775,-2.57 2.16625,2.16625 0 0 0 -2.57,1.6775"
     fill="url(#P)"
     id="path157"
     style="fill:url(#P);stroke-width:1.25" />
  <path
     d="m 77.847055,74.489252 a 3.59,3.59 0 0 0 -0.26,5.0675 3.5825,3.5825 0 0 0 5.0625,0.26 3.5825,3.5825 0 0 0 0.26375,-5.0625 3.5825,3.5825 0 0 0 -2.6675,-1.18625 c -0.855,0 -1.7125,0.30375 -2.39875,0.92125"
     fill="url(#Q)"
     id="path159"
     style="fill:url(#Q);stroke-width:1.25" />
  <path
     d="m 124.7358,75.733002 a 1.11625,1.11625 0 0 0 0.88,1.305 1.1125,1.1125 0 0 0 0.42875,-2.18125 1.12125,1.12125 0 0 0 -1.30875,0.87625"
     fill="url(#R)"
     id="path161"
     style="fill:url(#R);stroke-width:1.25" />
  <path
     d="m 103.93455,76.375502 a 2.2875,2.2875 0 0 0 1.1875,3.005 2.28125,2.28125 0 0 0 3,-1.185 c 0.5,-1.1575 -0.025,-2.5025 -1.18375,-3.0025 a 2.2775,2.2775 0 0 0 -3.00375,1.1825"
     fill="url(#S)"
     id="path163"
     style="fill:url(#S);stroke-width:1.25" />
  <path
     d="m 96.297055,77.464252 a 2.67375,2.67375 0 0 0 1.45625,3.498748 2.68125,2.68125 0 0 0 3.501245,-1.452498 2.685,2.685 0 0 0 -1.456245,-3.5 2.68125,2.68125 0 0 0 -3.50125,1.45375"
     fill="url(#T)"
     id="path165"
     style="fill:url(#T);stroke-width:1.25" />
  <path
     d="m 86.513305,78.639252 a 3.0775,3.0775 0 0 0 5.14625,3.371248 3.07375,3.07375 0 0 0 -0.88625,-4.257498 3.0725,3.0725 0 0 0 -4.26,0.88625"
     fill="url(#U)"
     id="path167"
     style="fill:url(#U);stroke-width:1.25" />
  <path
     d="m 117.4383,79.831752 a 1.39125,1.39125 0 0 0 0.75375,1.816248 1.39125,1.39125 0 0 0 1.815,-0.7575 1.38875,1.38875 0 0 0 -0.75625,-1.813748 1.3875,1.3875 0 0 0 -1.8125,0.755"
     fill="url(#V)"
     id="path169"
     style="fill:url(#V);stroke-width:1.25" />
  <path
     d="m 72.305805,79.198002 a 3.5868103,3.5868103 0 1 0 2.1975,6.828748 3.5875,3.5875 0 1 0 -1.0975,-7.001248 c -0.365,0 -0.735,0.05625 -1.1,0.1725"
     fill="url(#W)"
     id="path171"
     style="fill:url(#W);stroke-width:1.25" />
  <path
     d="m 109.17455,83.11425 a 2.1697574,2.1697574 0 1 0 3.99,1.70625 2.17,2.17 0 0 0 -1.145,-2.84875 2.16125,2.16125 0 0 0 -2.845,1.1425"
     fill="url(#X)"
     id="path173"
     style="fill:url(#X);stroke-width:1.25" />
  <path
     d="m 100.95455,83.59675 a 2.28125,2.28125 0 0 0 0.60625,3.1725 2.285,2.285 0 0 0 3.17,-0.6075 2.2875,2.2875 0 0 0 -0.60625,-3.17125 2.28125,2.28125 0 0 0 -3.17,0.60625"
     fill="url(#Y)"
     id="path175"
     style="fill:url(#Y);stroke-width:1.25" />
  <path
     d="m 92.813305,83.86175 a 2.68,2.68 0 0 0 0.6925,3.725 2.6813263,2.6813263 0 1 0 3.03125,-4.42375 2.675,2.675 0 0 0 -3.72375,0.69875"
     fill="url(#Z)"
     id="path177"
     style="fill:url(#Z);stroke-width:1.25" />
  <path
     d="m 80.730805,85.008 a 3.07625,3.07625 0 0 0 -0.505,4.32125 3.08125,3.08125 0 0 0 4.3225,0.50625 3.07875,3.07875 0 1 0 -1.91125,-5.49125 3.0625,3.0625 0 0 0 -1.90625,0.66375"
     fill="url(#aa)"
     id="path179"
     style="fill:url(#aa);stroke-width:1.25" />
  <path
     d="m 88.543305,88.94925 a 2.67875,2.67875 0 0 0 -0.0213,3.79125 2.68125,2.68125 0 0 0 3.78875,0.0187 2.675,2.675 0 0 0 0.0212,-3.79 2.67125,2.67125 0 0 0 -1.905,-0.795 c -0.68125,0 -1.3625,0.2575 -1.88375,0.775"
     fill="url(#ab)"
     id="path181"
     style="fill:url(#ab);stroke-width:1.25" />
  <path
     d="m 120.6283,88.918 a 1.1125,1.1125 0 0 0 0.56875,1.46625 1.11,1.11 0 0 0 0.8975,-2.03 1.1125,1.1125 0 0 0 -1.46625,0.56375"
     fill="url(#ac)"
     id="path183"
     style="fill:url(#ac);stroke-width:1.25" />
  <path
     d="m 113.0008,90.56425 a 1.39,1.39 0 0 0 0.35875,1.93375 1.3925,1.3925 0 0 0 1.93375,-0.3625 c 0.4375,-0.63375 0.2725,-1.49875 -0.36375,-1.9325 a 1.36875,1.36875 0 0 0 -0.78125,-0.24375 c -0.4425,0 -0.8775,0.2125 -1.1475,0.605"
     fill="url(#ad)"
     id="path185"
     style="fill:url(#ad);stroke-width:1.25" />
  <path
     d="m 96.158305,90.78925 a 2.28125,2.28125 0 0 0 -0.0613,3.23 2.28375,2.28375 0 0 0 3.285,-3.1725 2.27,2.27 0 0 0 -1.64,-0.6975 c -0.57,0 -1.14125,0.2125 -1.58375,0.64"
     fill="url(#ae)"
     id="path187"
     style="fill:url(#ae);stroke-width:1.25" />
  <path
     d="m 104.77955,91.268 a 2.1675,2.1675 0 0 0 0.58875,3.01125 2.1725,2.1725 0 0 0 3.01,-0.5875 2.17,2.17 0 0 0 -0.59,-3.01 2.1625,2.1625 0 0 0 -3.00875,0.58625"
     fill="url(#af)"
     id="path189"
     style="fill:url(#af);stroke-width:1.25" />
  <path
     d="m 83.170805,93.33925 a 2.675,2.675 0 0 0 -0.81375,3.70125 2.68375,2.68375 0 0 0 3.7025,0.81625 2.6875,2.6875 0 0 0 0.81375,-3.705 2.68375,2.68375 0 0 0 -2.26125,-1.235 2.6625,2.6625 0 0 0 -1.44125,0.4225"
     fill="url(#ag)"
     id="path191"
     style="fill:url(#ag);stroke-width:1.25" />
  <path
     d="m 90.429555,96.488 a 2.28375,2.28375 0 0 0 -0.675,3.15875 2.28125,2.28125 0 0 0 3.15625,0.67375 2.285,2.285 0 1 0 -1.24375,-4.2 2.2625,2.2625 0 0 0 -1.2375,0.3675"
     fill="url(#ah)"
     id="path193"
     style="fill:url(#ah);stroke-width:1.25" />
  <path
     d="m 98.294555,99.07425 a 2.175,2.175 0 0 0 -0.045,3.07 2.175,2.175 0 0 0 3.067495,0.0475 2.17125,2.17125 0 1 0 -1.511245,-3.73 c -0.54375,0 -1.08875,0.20375 -1.51125,0.6125"
     fill="url(#ai)"
     id="path195"
     style="fill:url(#ai);stroke-width:1.25" />
  <path
     d="m 107.01455,99.4505 a 1.39375,1.39375 0 0 0 -0.0187,1.9675 1.39375,1.39375 0 0 0 1.9675,0.015 c 0.5475,-0.54 0.5525,-1.42 0.0112,-1.9625 a 1.3875,1.3875 0 0 0 -1.96,-0.02"
     fill="url(#aj)"
     id="path197"
     style="fill:url(#aj);stroke-width:1.25" />
  <path
     d="m 114.35205,99.95425 a 1.11875,1.11875 0 0 0 0.2525,1.555 1.1175,1.1175 0 0 0 1.555,-0.25375 1.11,1.11 0 0 0 -0.25375,-1.55 1.11875,1.11875 0 0 0 -1.55375,0.24875"
     fill="url(#ak)"
     id="path199"
     style="fill:url(#ak);stroke-width:1.25" />
  <path
     d="m 90.582055,105.22675 a 2.175,2.175 0 0 0 -0.65375,3 2.17125,2.17125 0 0 0 2.9925,0.65625 2.1625,2.1625 0 0 0 0.65875,-2.99625 2.17,2.17 0 0 0 -1.83125,-1.0025 2.1625,2.1625 0 0 0 -1.16625,0.3425"
     fill="url(#al)"
     id="path201"
     style="fill:url(#al);stroke-width:1.25" />
  <path
     d="m 99.084555,107.313 a 1.39125,1.39125 0 0 0 -0.4075,1.925 1.3887509,1.3887509 0 1 0 2.328745,-1.51375 1.3925,1.3925 0 0 0 -1.168745,-0.63375 c -0.26,0 -0.52125,0.0725 -0.7525,0.2225"
     fill="url(#am)"
     id="path203"
     style="fill:url(#am);stroke-width:1.25" />
  <path
     d="m 107.5858,107.9155 a 1.1125,1.1125 0 0 0 1.56375,1.58125 1.10875,1.10875 0 0 0 0.0112,-1.57 1.105,1.105 0 0 0 -0.79125,-0.3325 1.11875,1.11875 0 0 0 -0.78375,0.32125"
     fill="url(#an)"
     id="path205"
     style="fill:url(#an);stroke-width:1.25" />
  <path
     d="m 98.057055,115.65425 a 1.1125,1.1125 0 0 0 -0.3175,1.54125 1.10625,1.10625 0 0 0 1.53375,0.32 1.1025,1.1025 0 0 0 0.32125,-1.5375 1.1125,1.1125 0 0 0 -1.5375,-0.32375"
     fill="url(#ao)"
     id="path207"
     style="fill:url(#ao);stroke-width:1.25" />
  <path
     d="m 70.093055,44.129002 a 3.585,3.585 0 1 1 -6.905,-1.93 3.58,3.58 0 0 1 4.416,-2.487 3.587,3.587 0 0 1 2.49,4.417 m -8.323,40.314998 a 3.592,3.592 0 0 1 3.894,-3.251 3.589,3.589 0 0 1 3.25,3.899 3.584,3.584 0 0 1 -3.893,3.245 3.585,3.585 0 0 1 -3.25,-3.893 m -7.735,-2.477 a 3.588,3.588 0 0 1 4.846,-1.5 3.588,3.588 0 0 1 -3.351,6.344 3.586,3.586 0 0 1 -1.495,-4.844 m -6.4,-5.547998 a 3.585,3.585 0 1 1 -0.574,5.035998 3.58,3.58 0 0 1 0.574,-5.035998 m -3.626,-7.599 a 3.586,3.586 0 0 1 4.394,2.53 3.589,3.589 0 0 1 -2.54,4.394 3.585,3.585 0 0 1 -1.854,-6.924 m -0.352,-8.074 a 3.584,3.584 0 1 1 -0.938,7.106 3.585,3.585 0 1 1 0.938,-7.106 m 2.938,-7.859 a 3.584,3.584 0 1 1 -3.684,6.147 3.588,3.588 0 0 1 -1.236,-4.917 3.59,3.59 0 0 1 4.92,-1.23 m 5.82,-6.044 a 3.585,3.585 0 1 1 -5.826,4.178 3.579,3.579 0 0 1 0.823,-5 3.585,3.585 0 0 1 5.003,0.823 m 8.684,-3.394 a 3.585,3.585 0 1 1 -4.13,-2.936 3.583,3.583 0 0 1 4.13,2.936 m 6.112,50.466998 a 3.075,3.075 0 1 1 -6.15,0 3.075,3.075 0 1 1 6.15,0 m 9.29,-2.538 a 3.0754732,3.0754732 0 1 1 -5.835,1.946 3.076,3.076 0 1 1 5.835,-1.946 m -15.627,-57.101998 a 3.074,3.074 0 0 1 3.17,-2.979 3.078,3.078 0 0 1 2.98,3.174 3.08,3.08 0 0 1 -3.174,2.975 3.071,3.071 0 0 1 -2.976,-3.17 m 9.102,0.258 a 3.0753252,3.0753252 0 1 1 5.83,1.96 3.0753252,3.0753252 0 1 1 -5.83,-1.96 m -18.178,2.298 a 3.0770219,3.0770219 0 1 1 5.88,-1.816 3.0771695,3.0771695 0 0 1 -5.88,1.817 m -8.305,5.677 a 3.075,3.075 0 0 1 0.603,-4.31 3.075212,3.075212 0 1 1 3.704,4.91 3.072,3.072 0 0 1 -4.307,-0.6 m -8.708,15.66 a 3.079,3.079 0 0 1 -1.892,-3.919 3.077,3.077 0 1 1 1.891,3.919 m 2.975,-8.648 a 3.0762517,3.0762517 0 1 1 3.484,-5.071 3.0762517,3.0762517 0 1 1 -3.484,5.071 m -3.498,17.889 a 3.0780933,3.0780933 0 1 1 0.227,-6.152 3.0780933,3.0780933 0 0 1 -0.227,6.152 m 2.434,9.141 a 3.071,3.071 0 0 1 -3.817,-2.086 3.078,3.078 0 0 1 2.082,-3.82 3.077306,3.077306 0 0 1 1.735,5.905 m 5.324,7.922998 a 3.082,3.082 0 0 1 -4.303,-0.663 3.083,3.083 0 0 1 0.664,-4.301998 3.08,3.08 0 0 1 3.64,4.964998 m 14.931,8.919 a 3.0779983,3.0779983 0 1 1 -5.782,-2.113 3.0779983,3.0779983 0 0 1 5.782,2.113 m -7.772,-3.158 a 3.08,3.08 0 0 1 -4.291,0.734 3.078,3.078 0 1 1 4.291,-0.734 m 17.636,-63.813998 a 2.68,2.68 0 1 1 -5.36,0 2.68,2.68 0 1 1 5.36,0 m 7.31,1.273 a 2.68,2.68 0 1 1 -5.254,-1.05 2.68,2.68 0 0 1 5.254,1.05 m 6.579,2.506 a 2.6814587,2.6814587 0 1 1 -4.972,-2.01 2.6814587,2.6814587 0 0 1 4.972,2.01 m -54.305,31.342 a 2.6800746,2.6800746 0 1 1 0.04,5.36 2.6800746,2.6800746 0 0 1 -0.04,-5.36 m 1.215,-7.32 a 2.685,2.685 0 0 1 2.13,3.138 2.68,2.68 0 1 1 -2.13,-3.138 m 2.46,-6.595 a 2.6806228,2.6806228 0 1 1 -1.973,4.985 2.6806228,2.6806228 0 0 1 1.973,-4.985 m 4.141,-6.685 a 2.68,2.68 0 1 1 -2.96,4.467 2.68,2.68 0 0 1 2.96,-4.467 m 4.91,-5.226 a 2.6811196,2.6811196 0 0 1 -3.755,3.828 2.679,2.679 0 0 1 -0.036,-3.791 2.68,2.68 0 0 1 3.791,-0.037 m 6.098,-4.395 a 2.682,2.682 0 0 1 -0.758,3.713 2.681,2.681 0 0 1 -2.955,-4.472 2.682,2.682 0 0 1 3.713,0.759 m 6.213,-2.835 a 2.684,2.684 0 0 1 -1.377,3.532 2.677,2.677 0 0 1 -3.53,-1.374 2.684,2.684 0 0 1 1.371,-3.532 2.686,2.686 0 0 1 3.536,1.374 m 7.313,-1.68 a 2.6780714,2.6780714 0 0 1 -5.208,1.251 2.674,2.674 0 0 1 1.976,-3.23 2.677,2.677 0 0 1 3.233,1.979 m 2.769,74.871998 a 2.676,2.676 0 0 1 2.664,-2.697 2.679,2.679 0 1 1 0.035,5.357 2.683,2.683 0 0 1 -2.699,-2.66 m -7.321,-1.222 a 2.686,2.686 0 0 1 3.142,-2.123 2.68,2.68 0 1 1 -3.142,2.124 m -6.592,-2.46 a 2.682,2.682 0 0 1 4.986,1.973 2.677,2.677 0 0 1 -3.478,1.503 2.678,2.678 0 0 1 -1.508,-3.476 m -6.685,-4.143 a 2.6800441,2.6800441 0 1 1 4.468,2.961 2.673,2.673 0 0 1 -3.713,0.751 2.68,2.68 0 0 1 -0.755,-3.712 m -5.22,-4.914 a 2.68,2.68 0 1 1 3.821,3.755 2.68,2.68 0 0 1 -3.82,-3.755 m -4.393,-6.101 a 2.6800644,2.6800644 0 1 1 2.952,4.474 2.676,2.676 0 0 1 -3.712,-0.764 2.675,2.675 0 0 1 0.76,-3.71 m -2.834,-6.212998 a 2.676,2.676 0 0 1 3.529,1.377 2.67,2.67 0 0 1 -1.374,3.529998 2.676,2.676 0 0 1 -3.526,-1.376 2.675,2.675 0 0 1 1.37,-3.530998 m -1.674,-7.317 a 2.679,2.679 0 1 1 1.246,5.211 2.671,2.671 0 0 1 -3.225,-1.981 2.676,2.676 0 0 1 1.98,-3.23 m 49.3,30.470998 a 2.68,2.68 0 1 1 4.938,-2.084 2.68,2.68 0 0 1 -4.938,2.084 m -7.338,1.57 a 2.675,2.675 0 0 1 2.027,-3.201 2.677,2.677 0 0 1 3.2,2.03 2.678,2.678 0 0 1 -5.226,1.171 m -7.308,-81.281998 a 2.283,2.283 0 1 1 -4.566,0 2.283,2.283 0 1 1 4.566,0 m 10.21,0.638 a 2.272,2.272 0 0 1 -2.744,1.693 2.281,2.281 0 0 1 -1.7,-2.745 2.292,2.292 0 0 1 2.754,-1.697 2.283,2.283 0 0 1 1.69,2.75 m 7.928,2.215 a 2.277,2.277 0 0 1 -3.011,1.153 2.287,2.287 0 0 1 -1.156,-3.017 2.288,2.288 0 0 1 3.018,-1.152 2.28,2.28 0 0 1 1.15,3.016 m 7.039,3.444 a 2.284,2.284 0 0 1 -3.172,0.602 2.284,2.284 0 0 1 2.573,-3.773 2.278,2.278 0 0 1 0.6,3.17 m -4.011,77.504998 a 2.285,2.285 0 0 1 1.25,-2.98 2.287,2.287 0 0 1 2.979,1.256 2.288,2.288 0 0 1 -1.253,2.979 2.292,2.292 0 0 1 -2.976,-1.255 m -7.963,2.856 a 2.282,2.282 0 1 1 2.681,1.797 2.28,2.28 0 0 1 -2.68,-1.797 m -8.187,1.271 a 2.29,2.29 0 0 1 2.272,-2.297 2.28,2.28 0 0 1 2.295,2.27 2.281,2.281 0 0 1 -2.27,2.297 2.287,2.287 0 0 1 -2.297,-2.27 m -9.791,-0.505 a 2.289,2.289 0 0 1 2.725,-1.738 2.281,2.281 0 0 1 1.733,2.722 2.2825453,2.2825453 0 1 1 -4.458,-0.983 m -7.179,-1.813 a 2.2849132,2.2849132 0 1 1 4.235,1.717 2.2849132,2.2849132 0 0 1 -4.235,-1.717 m -9.402,-4.548 a 2.2831715,2.2831715 0 1 1 3.708,2.665 2.283,2.283 0 0 1 -3.708,-2.664 m -6.039,-4.646 a 2.287,2.287 0 0 1 3.233,0.036 c 0.88,0.901 0.86,2.347 -0.04,3.226 a 2.2823175,2.2823175 0 1 1 -3.193,-3.262 m -5.709,-6.367 a 2.283,2.283 0 0 1 3.159,0.66 2.273,2.273 0 0 1 -0.655,3.16 2.28,2.28 0 0 1 -3.16,-0.658 2.281,2.281 0 0 1 0.656,-3.162 m -4.061,-6.698 a 2.28,2.28 0 0 1 2.994,1.208 2.277,2.277 0 0 1 -1.207,2.994 2.287,2.287 0 0 1 -2.995,-1.209 2.287,2.287 0 0 1 1.208,-2.993 m -2.717,-7.008998 a 2.2823773,2.2823773 0 1 1 1.043,4.443998 2.2823773,2.2823773 0 0 1 -1.043,-4.443998 m -1.68,-9.423 a 2.28,2.28 0 0 1 2.317,2.253 2.284,2.284 0 0 1 -2.255,2.312 2.292,2.292 0 0 1 -2.317,-2.253 2.294,2.294 0 0 1 2.255,-2.312 m 0.352,-9.203 a 2.285,2.285 0 0 1 1.793,2.687 2.284,2.284 0 1 1 -1.794,-2.686 m 2.114,-8.538 a 2.285,2.285 0 0 1 1.222,2.989 2.28,2.28 0 0 1 -2.987,1.222 2.285,2.285 0 0 1 -1.225,-2.989 2.287,2.287 0 0 1 2.99,-1.222 m 3.825,-8.048 a 2.286,2.286 0 0 1 0.598,3.175 2.2853845,2.2853845 0 0 1 -3.773,-2.58 2.29,2.29 0 0 1 3.175,-0.595 m 5.542,-7.303 a 2.284,2.284 0 0 1 -3.296,3.157 2.2820093,2.2820093 0 1 1 3.296,-3.157 m 6.055,-5.362 a 2.2843476,2.2843476 0 0 1 -3.824,2.5 2.295,2.295 0 0 1 0.664,-3.163 2.286,2.286 0 0 1 3.16,0.663 m 6.895,-4.147 a 2.282,2.282 0 0 1 -1.23,2.989 2.28,2.28 0 0 1 -2.984,-1.225 2.282,2.282 0 0 1 1.223,-2.988 2.287,2.287 0 0 1 2.99,1.224 m 8.156,-2.989 a 2.278,2.278 0 0 1 -1.791,2.688 2.278,2.278 0 0 1 -2.687,-1.787 2.284,2.284 0 0 1 4.478,-0.901 m 3.066,-7.919 a 2.17,2.17 0 1 1 -4.254,0.856 2.17,2.17 0 0 1 4.254,-0.856 m 10.459,-0.597 a 2.1715389,2.1715389 0 0 1 -4.343,-0.026 2.173,2.173 0 0 1 2.183,-2.158 2.177,2.177 0 0 1 2.16,2.184 m 11.866,1.953 a 2.172,2.172 0 0 1 -2.627,1.587 2.17,2.17 0 0 1 1.04,-4.212 2.173,2.173 0 0 1 1.587,2.625 m 8.103,3.1 a 2.17,2.17 0 1 1 -1.123,-2.855 2.17,2.17 0 0 1 1.123,2.855 m -5.105,94.339998 a 2.173,2.173 0 0 1 1.202,-2.823 2.172,2.172 0 0 1 1.618,4.03 2.175,2.175 0 0 1 -2.82,-1.207 m -9.319,2.363 a 2.172,2.172 0 0 1 4.26,-0.838 2.1708204,2.1708204 0 0 1 -4.26,0.838 m -10.921,0.516 a 2.1674672,2.1674672 0 1 1 4.334,0.09 2.17,2.17 0 0 1 -2.211,2.124 2.172,2.172 0 0 1 -2.123,-2.214 m -9.773,-1.54 a 2.1707976,2.1707976 0 1 1 4.243,0.92 2.1707976,2.1707976 0 0 1 -4.243,-0.92 m -9.636,-3.556 a 2.175,2.175 0 0 1 2.864,-1.113 2.173,2.173 0 0 1 1.11,2.86 2.171,2.171 0 0 1 -3.974,-1.747 m -9.765,-6.227 a 2.167,2.167 0 0 1 3.469,2.594 2.163,2.163 0 0 1 -3.033,0.441 2.17,2.17 0 0 1 -0.436,-3.035 m -5.87,-5.568 a 2.18,2.18 0 0 1 3.074,0.042 2.1682334,2.1682334 0 1 1 -3.112,3.02 2.165,2.165 0 0 1 0.038,-3.062 m -5.805,-7.866 a 2.173,2.173 0 0 1 3.004,0.624 2.169,2.169 0 0 1 -0.63,3.004 2.169,2.169 0 0 1 -2.375,-3.627 m -3.73,-7.557 a 2.17,2.17 0 0 1 2.863,1.11 2.166,2.166 0 0 1 -1.114,2.858 2.169,2.169 0 0 1 -1.749,-3.968 m -2.778,-9.791998 a 2.178,2.178 0 0 1 2.59,1.655 2.173,2.173 0 0 1 -4.244,0.926 2.175,2.175 0 0 1 1.654,-2.58 m -0.774,-10.625 a 2.176,2.176 0 0 1 2.19,2.152 2.17,2.17 0 1 1 -2.19,-2.152 m 1.397,-10.359 a 2.173,2.173 0 0 1 1.705,2.551 2.1711037,2.1711037 0 0 1 -4.258,-0.851 2.173,2.173 0 0 1 2.553,-1.7 m 3.222,-9.334 a 2.168,2.168 0 1 1 -1.645,4.01 2.172,2.172 0 0 1 -1.187,-2.833 2.173,2.173 0 0 1 2.832,-1.177 m 5.026,-8.641 a 2.176,2.176 0 0 1 0.611,3.008 2.17,2.17 0 0 1 -3.615,-2.4 2.17,2.17 0 0 1 3.004,-0.608 m 7.608,-8.408 a 2.1674236,2.1674236 0 1 1 -3.13,2.999 2.1674236,2.1674236 0 1 1 3.13,-2.999 m 7.308,-5.388 a 2.176,2.176 0 0 1 -0.604,3.008 2.175,2.175 0 0 1 -3.013,-0.61 2.168,2.168 0 0 1 0.61,-3.006 2.172,2.172 0 0 1 3.007,0.608 m 8.862,-4.286 a 2.172,2.172 0 0 1 -1.17,2.837 2.173,2.173 0 0 1 -2.835,-1.173 2.17,2.17 0 0 1 1.174,-2.839 2.173,2.173 0 0 1 2.83,1.174 m 13.398,-8.7470002 a 1.3925004,1.3925004 0 1 1 -2.785,0.002 1.3925004,1.3925004 0 0 1 2.785,-0.002 m 5.278,-6.152 a 1.112,1.112 0 1 1 -1.11,-1.1130000022489 c 0.612,0 1.11,0.4970000022489 1.11,1.1120000022489 m 14.855,2 a 1.113,1.113 0 0 1 -1.344,0.819 1.109,1.109 0 0 1 -0.816,-1.344 c 0.144,-0.595 0.748,-0.96 1.344,-0.819 0.592,0.146 0.961,0.749 0.816,1.344 m 11.421,4.169 a 1.113,1.113 0 1 1 -2.021,-0.932 1.113,1.113 0 0 1 2.021,0.932 M 86.054055,123.001 a 1.1091911,1.1091911 0 1 1 2.066,-0.808 1.106,1.106 0 0 1 -0.63,1.438 1.105,1.105 0 0 1 -1.436,-0.63 m -11.494,3.09 a 1.107,1.107 0 0 1 0.887,-1.295 1.1130752,1.1130752 0 1 1 0.405,2.189 1.113,1.113 0 0 1 -1.292,-0.894 m -13.073,0.835 c 0.015,-0.615 0.526,-1.1 1.138,-1.085 0.615,0.02 1.1,0.53 1.08,1.144 -0.01,0.61 -0.52,1.1 -1.135,1.08 a 1.115,1.115 0 0 1 -1.083,-1.14 m -13.151,-1.938 a 1.112,1.112 0 1 1 2.161,0.523 1.112,1.112 0 0 1 -2.16,-0.523 m -11.629,-4.254 a 1.1104707,1.1104707 0 1 1 2.015,0.934 1.107,1.107 0 0 1 -1.475,0.543 1.112,1.112 0 0 1 -0.54,-1.477 m -11.218,-6.944 a 1.105,1.105 0 0 1 1.555,-0.223 c 0.487,0.371 0.587,1.068 0.219,1.558 a 1.107,1.107 0 0 1 -1.555,0.22 1.109,1.109 0 0 1 -0.22,-1.555 m -8.178,-7.589 a 1.111,1.111 0 0 1 1.571,0.058 1.109,1.109 0 0 1 -0.057,1.57 1.105,1.105 0 0 1 -1.571,-0.056 1.111,1.111 0 0 1 0.057,-1.572 m -6.559,-8.672 a 1.11,1.11 0 0 1 1.536,0.33 c 0.333,0.515 0.19,1.202 -0.326,1.532 a 1.109,1.109 0 0 1 -1.539,-0.324 1.112,1.112 0 0 1 0.33,-1.538 M 6.2080547,88.874 a 1.111405,1.111405 0 1 1 0.91,2.028 1.114,1.114 0 0 1 -1.474,-0.56 1.117,1.117 0 0 1 0.564,-1.468 m -3.622,-11.251998 a 1.112,1.112 0 0 1 0.511,2.163 1.105,1.105 0 0 1 -1.336,-0.827 1.11,1.11 0 0 1 0.825,-1.336 m -1.483,-13.875 a 1.102,1.102 0 0 1 1.122,1.098 1.1125544,1.1125544 0 0 1 -2.224999986814,0.022 1.109,1.109 0 0 1 1.102999986814,-1.12 m 1.156,-11.718 c 0.605,0.106 1.008,0.684 0.898,1.288 a 1.108,1.108 0 0 1 -1.287,0.897 1.103,1.103 0 0 1 -0.89899999,-1.289 1.105,1.105 0 0 1 1.28799999,-0.896 m 3.839,-12.56 a 1.1092701,1.1092701 0 1 1 -0.836,2.055 1.11,1.11 0 1 1 0.836,-2.055 m 6.2450003,-11.322 c 0.51,0.343 0.645,1.035 0.3,1.541 a 1.106,1.106 0 0 1 -1.539,0.302 1.105,1.105 0 0 1 -0.305,-1.542 1.113,1.113 0 0 1 1.544,-0.3 m 8.436,-9.821 a 1.103,1.103 0 0 1 -0.017,1.57 1.104,1.104 0 0 1 -1.57,-0.02 1.11,1.11 0 1 1 1.587,-1.55 m 9.705,-7.53 a 1.11,1.11 0 1 1 -1.86,1.211 1.11,1.11 0 0 1 1.859,-1.211 m 11.413,-5.6690002 a 1.106,1.106 0 0 1 -0.626,1.44 1.104,1.104 0 0 1 -1.436,-0.628 1.10806,1.10806 0 1 1 2.062,-0.812 m 10.524,-2.941 a 1.109,1.109 0 0 1 -0.867,1.31 1.11,1.11 0 0 1 -1.31,-0.867 1.110808,1.110808 0 1 1 2.177,-0.443 m 20.051,5.54 a 1.389,1.389 0 1 1 -1.044,-1.666 1.392,1.392 0 0 1 1.044,1.666 m 11.449,2.9560002 a 1.389,1.389 0 1 1 -0.676,-1.8450002 c 0.7,0.322 0.995,1.148 0.676,1.8450002 m 8.895,4.222 a 1.393,1.393 0 0 1 -1.935,0.35 1.394,1.394 0 0 1 -0.352,-1.934 1.393,1.393 0 0 1 1.937,-0.348 c 0.631,0.435 0.793,1.302 0.35,1.932 M 89.648055,114.9 a 1.384,1.384 0 0 1 0.76,-1.812 1.386,1.386 0 0 1 1.81,0.758 1.393,1.393 0 0 1 -0.757,1.814 1.393,1.393 0 0 1 -1.813,-0.76 m -10.29,3.985 a 1.39,1.39 0 0 1 2.725,-0.541 1.39,1.39 0 0 1 -2.725,0.541 m -11.795,1.99 a 1.388,1.388 0 1 1 2.775,0.041 1.388,1.388 0 0 1 -2.775,-0.041 m -12.435,-0.592 a 1.39,1.39 0 0 1 1.675,-1.03 1.385,1.385 0 0 1 1.025,1.674 1.3878703,1.3878703 0 1 1 -2.7,-0.644 m -9.971,-2.52 a 1.399,1.399 0 0 1 1.838,-0.713 1.393,1.393 0 0 1 0.705,1.833 1.385,1.385 0 0 1 -1.828,0.712 1.393,1.393 0 0 1 -0.715,-1.832 m -11.231,-5.392 a 1.392,1.392 0 0 1 1.944,-0.296 c 0.62,0.454 0.749,1.324 0.292,1.941 -0.448,0.62 -1.32,0.754 -1.937,0.3 a 1.393,1.393 0 0 1 -0.299,-1.945 m -8.66,-6.625 a 1.393,1.393 0 0 1 1.965,0.08 1.392,1.392 0 0 1 -0.08,1.963 1.391,1.391 0 0 1 -1.885,-2.043 m -6.622,-7.328 a 1.392,1.392 0 0 1 1.921,0.418 1.383,1.383 0 0 1 -0.423,1.917 c -0.642,0.416 -1.5,0.233 -1.917,-0.413 a 1.39,1.39 0 0 1 0.42,-1.922 m -5.144,-8.13 a 1.389,1.389 0 0 1 1.825,0.735 1.382,1.382 0 0 1 -0.735,1.82 1.393,1.393 0 0 1 -1.822,-0.731 c -0.3,-0.707 0.03,-1.525 0.732,-1.824 M 9.5680547,80.647 a 1.392,1.392 0 0 1 1.6610003,1.053 1.387,1.387 0 0 1 -1.057,1.657 1.386,1.386 0 0 1 -1.6560003,-1.054 1.39,1.39 0 0 1 1.052,-1.656 m -2.303,-12.209998 a 1.389,1.389 0 1 1 0,2.778 1.393,1.393 0 0 1 -1.39,-1.388 c 0,-0.766 0.625,-1.39 1.39,-1.39 m 0.19,-10.776 a 1.388,1.388 0 0 1 -0.521,2.726 1.389,1.389 0 1 1 0.521,-2.726 m 2.402,-11.143 a 1.384,1.384 0 0 1 0.7580003,1.813 1.39,1.39 0 0 1 -2.5710003,-1.056 1.393,1.393 0 0 1 1.813,-0.757 m 4.5600003,-10.409 a 1.3879987,1.3879987 0 1 1 -1.541,2.309 1.3881372,1.3881372 0 1 1 1.54,-2.31 m 7.089,-9.927 a 1.387937,1.387937 0 1 1 -1.999,1.926 1.3882972,1.3882972 0 1 1 2,-1.926 m 8.292,-7.636 a 1.3881315,1.3881315 0 1 1 -2.34,1.494 1.3881315,1.3881315 0 0 1 2.34,-1.494 m 9.051,-5.572 a 1.385,1.385 0 0 1 -0.769,1.807 1.392,1.392 0 0 1 -1.806,-0.775 1.3870516,1.3870516 0 1 1 2.575,-1.032 m 10.458,-3.9350002 a 1.388,1.388 0 0 1 -2.728,0.511 1.383,1.383 0 0 1 1.105,-1.621 1.39,1.39 0 0 1 1.623,1.11"
     fill="#f1511b"
     id="path209" />
  <g
     id="g213"
     transform="translate(-39.338945,-13.006998)">
    <path
       d="m 110.107,73.042 c -0.625,-4.416 -3.342,-5.945 -6.342,-5.945 -3.624,0 -6.117,2.095 -6.907,5.945 h 13.25 z m 7.699,11.436 c -3.511,4.7 -8.039,7.192 -13.815,7.192 -7.416,0 -14.551,-4.7 -14.551,-15.118 0,-9.511 6.115,-14.89 14.098,-14.89 7.474,0 10.588,4.473 11.155,5.323 2.32,3.283 2.832,8.208 2.887,11.04 H 96.632 c 0.793,4.472 3.565,7.02 8.039,7.02 4.641,0 6.51,-2.717 7.36,-3.905 z m 11.719,-21.966 v 4.018 c 0.85,-1.472 2.719,-4.812 9.06,-4.642 v 6.965 c -1.471,0.056 -4.019,0.112 -6.115,1.699 -2.885,2.207 -2.945,5.095 -2.945,9.793 V 90.82 h -6.568 V 62.512 Z m 30.575,10.02 c -0.51,-1.868 -2.491,-4.812 -6.398,-4.812 -3.907,0 -7.022,3.114 -7.022,8.776 0,5.095 2.664,8.833 7.135,8.833 4.304,0 5.945,-3.284 6.794,-5.55 l 5.83,3.058 c -2.205,6.114 -7.812,8.833 -12.737,8.833 -7.872,0 -14.04,-6.059 -14.04,-15.004 0,-8.664 6.225,-15.004 14.267,-15.004 7.133,0 10.757,4.755 12.228,8.04 z"
       fill="#231f20"
       id="path211" />
  </g>
</svg>
