<?xml version="1.0" encoding="UTF-8" standalone="no"?>
<!-- Created with Inkscape (http://www.inkscape.org/) -->

<svg
   version="1.1"
   id="svg1"
   width="314.46838"
   height="104.35307"
   viewBox="0 0 314.46838 104.35305"
   sodipodi:docname="geodata.svg"
   inkscape:version="1.1.2 (0a00cf5339, 2022-02-04)"
   xmlns:inkscape="http://www.inkscape.org/namespaces/inkscape"
   xmlns:sodipodi="http://sodipodi.sourceforge.net/DTD/sodipodi-0.dtd"
   xmlns="http://www.w3.org/2000/svg"
   xmlns:svg="http://www.w3.org/2000/svg">
  <defs
     id="defs1" />
  <sodipodi:namedview
     id="namedview1"
     pagecolor="#ffffff"
     bordercolor="#000000"
     borderopacity="0.25"
     inkscape:showpageshadow="false"
     inkscape:pageopacity="0.0"
     inkscape:pagecheckerboard="0"
     inkscape:deskcolor="#d1d1d1"
     inkscape:zoom="2.2147327"
     inkscape:cx="164.57968"
     inkscape:cy="58.697828"
     inkscape:window-width="1920"
     inkscape:window-height="1011"
     inkscape:window-x="0"
     inkscape:window-y="0"
     inkscape:window-maximized="1"
     inkscape:current-layer="g1"
     inkscape:pageshadow="2"
     showgrid="false"
     fit-margin-top="0"
     fit-margin-left="0"
     fit-margin-right="0"
     fit-margin-bottom="0"
     borderlayer="true"
     lock-margins="true">
    <inkscape:page
       x="0"
       y="0"
       inkscape:label="1"
       id="page1"
       width="393.74667"
       height="166.16"
       margin="0"
       bleed="0" />
  </sodipodi:namedview>
  <g
     id="g1"
     inkscape:groupmode="layer"
     inkscape:label="1"
     transform="translate(-33.339596,-35.482937)">
    <path
       id="path2"
       d="m 173.08,66.846002 c -2.56667,2.375467 -5.528,3.564 -8.88534,3.564 -2.21866,0 -4.308,-0.419333 -6.27333,-1.259333 -1.96533,-0.839067 -3.68267,-2.019333 -5.15467,-3.540133 -1.47466,-1.5208 -2.63866,-3.350533 -3.49333,-5.488533 -0.856,-2.138534 -1.28267,-4.490667 -1.28267,-7.056267 0,-2.312533 0.42667,-4.4984 1.28267,-6.5584 0.85467,-2.0588 2.03467,-3.848933 3.54,-5.369733 1.504,-1.5208 3.28667,-2.724 5.34667,-3.610933 2.05866,-0.886933 4.276,-1.330667 6.652,-1.330667 3.13733,0 5.876,0.657734 8.22133,1.971867 2.344,1.315067 4.10133,3.1124 5.27467,5.393733 l -5.79734,4.371867 c -0.76133,-1.5208 -1.86133,-2.700534 -3.30266,-3.540667 -1.44267,-0.839067 -3.00267,-1.2588 -4.68134,-1.2588 -1.29866,0 -2.47866,0.260933 -3.54,0.783867 -1.06133,0.5228 -1.972,1.252 -2.732,2.185866 -0.76,0.9344 -1.348,2.019867 -1.75866,3.254667 -0.412,1.236 -0.61734,2.566667 -0.61734,3.992266 0,1.4572 0.22134,2.8036 0.66534,4.039067 0.44266,1.2348 1.06133,2.304667 1.85333,3.207733 0.79067,0.902134 1.73333,1.607867 2.828,2.114667 1.092,0.5072 2.304,0.759333 3.63467,0.759333 3.04,0 5.78,-1.4084 8.22,-4.228666 v -1.045334 h -6.55734 V 52.542803 H 179.544 v 17.629733 h -6.464 v -3.326534"
       style="fill:#2c378f;fill-opacity:1;fill-rule:nonzero;stroke:none;stroke-width:0.133333" />
    <path
       id="path3"
       d="m 198.788,42.991203 -4.84534,-1.330667 2.46934,-6.177599 h 6.89066 z m 3.18399,12.3548 c -0.15866,-1.583334 -0.72933,-2.8344 -1.70933,-3.753733 -0.98266,-0.918667 -2.20266,-1.378134 -3.66,-1.378134 -1.488,0 -2.716,0.467734 -3.68266,1.4016 -0.96534,0.934934 -1.528,2.1792 -1.68667,3.730267 z m -5.27466,15.301466 c -2.08933,0 -3.96667,-0.341067 -5.63067,-1.021333 -1.664,-0.6812 -3.072,-1.607334 -4.228,-2.780134 -1.15866,-1.171999 -2.03733,-2.526133 -2.63866,-4.063066 -0.60134,-1.536533 -0.90267,-3.143733 -0.90267,-4.822933 0,-1.805734 0.30133,-3.5084 0.90267,-5.1088 0.60133,-1.599067 1.47466,-3.001067 2.61466,-4.2048 1.14,-1.204133 2.54134,-2.154667 4.204,-2.851467 1.664,-0.696933 3.556,-1.045866 5.67867,-1.045866 2.12267,0 4.008,0.348933 5.65466,1.045866 1.648,0.6968 3.04267,1.639067 4.18267,2.827067 1.14133,1.188533 2.00267,2.5588 2.58933,4.110933 0.58667,1.552 0.88,3.183333 0.88,4.894267 0,0.444266 -0.016,0.8792 -0.048,1.3068 -0.032,0.4276 -0.0787,0.8 -0.14266,1.116666 H 191.376 c 0.12666,1.6796 0.73733,2.954134 1.82933,3.825467 1.092,0.871867 2.336,1.306267 3.73067,1.306267 1.108,0 2.17733,-0.2688 3.20666,-0.807867 1.03067,-0.538 1.71867,-1.266133 2.068,-2.185333 l 6.46267,1.8052 c -0.98267,1.965066 -2.50267,3.564533 -4.56134,4.799466 -2.06,1.235867 -4.53199,1.8536 -7.41466,1.8536"
       style="fill:#2c378f;fill-opacity:1;fill-rule:nonzero;stroke:none;stroke-width:0.133333" />
    <path
       id="path4"
       d="m 220.50533,57.722536 c 0,1.964 0.52266,3.5396 1.56666,4.7276 1.04667,1.188 2.37734,1.782267 3.99334,1.782267 0.79066,0 1.52,-0.1584 2.18533,-0.475467 0.66533,-0.315733 1.24267,-0.76 1.73467,-1.330267 0.49066,-0.570266 0.87866,-1.259333 1.164,-2.066666 0.28533,-0.8084 0.42666,-1.687467 0.42666,-2.637467 0,-1.964133 -0.52133,-3.540667 -1.56666,-4.728667 -1.04667,-1.187999 -2.36134,-1.781733 -3.944,-1.781733 -0.792,0 -1.52934,0.1588 -2.21067,0.474934 -0.68133,0.3172 -1.26667,0.7604 -1.75733,1.330799 -0.492,0.570267 -0.88,1.259334 -1.164,2.067067 -0.28534,0.807867 -0.428,1.687067 -0.428,2.6376 z m 5.56,12.924933 c -2.12267,0 -4.016,-0.348933 -5.67867,-1.045333 -1.664,-0.6968 -3.06533,-1.639467 -4.20667,-2.8276 -1.14,-1.188 -2.00266,-2.5656 -2.58933,-4.134267 -0.58533,-1.568266 -0.87867,-3.207866 -0.87867,-4.917733 0,-1.710933 0.29334,-3.350533 0.87867,-4.9188 0.58667,-1.567733 1.44933,-2.945866 2.58933,-4.133866 1.14134,-1.188534 2.54267,-2.139067 4.20667,-2.851067 1.66267,-0.712933 3.556,-1.069733 5.67867,-1.069733 2.12133,0 4.00666,0.3568 5.65466,1.069733 1.64667,0.712 3.04134,1.662533 4.18,2.851067 1.14134,1.188 2.012,2.566133 2.61467,4.133866 0.60267,1.568267 0.90267,3.207867 0.90267,4.9188 0,1.709867 -0.29334,3.349467 -0.87867,4.917733 -0.58667,1.568667 -1.44933,2.946267 -2.58933,4.134267 -1.14134,1.188133 -2.544,2.1308 -4.20667,2.8276 -1.66267,0.6964 -3.556,1.045333 -5.67733,1.045333"
       style="fill:#2c378f;fill-opacity:1;fill-rule:nonzero;stroke:none;stroke-width:0.133333" />
    <path
       id="path5"
       d="m 256.28533,64.232403 c 1.04533,0 2.05066,-0.3088 3.01733,-0.926534 0.96667,-0.617733 1.70267,-1.4652 2.20933,-2.542266 v -5.2276 c -0.47466,-1.266667 -1.24266,-2.304667 -2.304,-3.1124 -1.06266,-0.807867 -2.16266,-1.211467 -3.304,-1.211467 -0.824,0 -1.57466,0.1828 -2.256,0.546267 -0.68266,0.364667 -1.276,0.848 -1.78266,1.449466 -0.50667,0.602667 -0.89467,1.299067 -1.164,2.090667 -0.26934,0.792133 -0.404,1.632267 -0.404,2.5188 0,0.9192 0.15066,1.7744 0.452,2.566133 0.30133,0.792134 0.712,1.472934 1.236,2.0432 0.52266,0.570267 1.15466,1.014534 1.9,1.330267 0.744,0.317067 1.54533,0.475467 2.4,0.475467 z m -2.044,6.415066 c -1.71067,0 -3.28667,-0.325467 -4.728,-0.973867 -1.44267,-0.649066 -2.684,-1.560533 -3.72934,-2.7324 -1.04666,-1.171866 -1.86266,-2.542133 -2.44666,-4.110933 -0.588,-1.568133 -0.88134,-3.2864 -0.88134,-5.1552 0,-1.806266 0.27067,-3.501066 0.80934,-5.084799 0.53733,-1.583867 1.29866,-2.953734 2.28133,-4.110534 0.98,-1.156133 2.14533,-2.067066 3.492,-2.7328 1.34667,-0.665066 2.82667,-0.997866 4.44267,-0.997866 1.74266,0 3.31866,0.412 4.728,1.235866 1.41066,0.824 2.49466,1.932934 3.25466,3.326134 V 35.482937 h 7.604 v 26.135866 c 0,0.760533 0.11867,1.2912 0.356,1.591733 0.23867,0.3016 0.65734,0.483333 1.25867,0.5464 v 6.4156 c -0.696,0.157733 -1.29867,0.260933 -1.804,0.308266 -0.508,0.04747 -0.98267,0.07187 -1.42533,0.07187 -1.332,0 -2.40934,-0.278133 -3.232,-0.831733 -0.824,-0.5536 -1.3,-1.354667 -1.42667,-2.399467 l -0.14133,-1.283333 c -0.888,1.552533 -2.084,2.708266 -3.588,3.4688 -1.504,0.7604 -3.112,1.140533 -4.824,1.140533"
       style="fill:#2c378f;fill-opacity:1;fill-rule:nonzero;stroke:none;stroke-width:0.133333" />
    <path
       id="path6"
       d="m 284.98666,65.182403 c 0.824,0 1.624,-0.142134 2.4,-0.4276 0.776,-0.284934 1.41733,-0.665067 1.924,-1.140667 0.72933,-0.5692 1.09333,-1.1708 1.09333,-1.8052 v -2.376533 c -0.66533,-0.253067 -1.38666,-0.451067 -2.16266,-0.5932 -0.776,-0.1428 -1.496,-0.214667 -2.16134,-0.214667 -1.39466,0 -2.54266,0.3172 -3.44533,0.950533 -0.90267,0.6344 -1.35333,1.457867 -1.35333,2.471334 0,0.919333 0.34666,1.671466 1.04533,2.257333 0.69467,0.586533 1.58267,0.878667 2.66,0.878667 z m -2.23333,5.465066 c -1.236,0 -2.384,-0.1984 -3.44534,-0.593733 -1.06133,-0.395867 -1.97066,-0.950534 -2.732,-1.663467 -0.76,-0.712533 -1.36266,-1.552133 -1.80533,-2.5188 -0.444,-0.9656 -0.66533,-2.019333 -0.66533,-3.159333 0,-1.236 0.26133,-2.36 0.784,-3.374533 0.52266,-1.013067 1.25866,-1.883867 2.20933,-2.613067 0.95067,-0.728533 2.07467,-1.298933 3.37333,-1.710933 1.3,-0.411467 2.74,-0.618134 4.324,-0.618134 1.04667,0 2.06,0.088 3.04267,0.261867 0.98133,0.174533 1.83733,0.435467 2.56533,0.783867 v -1.140534 c 0,-2.882399 -1.664,-4.324533 -4.98933,-4.324533 -1.36267,0 -2.66133,0.2308 -3.89733,0.6896 -1.23467,0.459867 -2.53467,1.1484 -3.896,2.0672 l -2.23334,-4.752133 c 1.64667,-1.076533 3.35734,-1.8848 5.132,-2.423867 1.77334,-0.538133 3.65867,-0.807866 5.656,-0.807866 3.76934,0 6.68267,0.887466 8.74267,2.661466 2.05867,1.774934 3.08933,4.371867 3.08933,7.7932 v 6.415067 c 0,0.760533 0.11734,1.2912 0.356,1.591733 0.23734,0.3016 0.656,0.483333 1.25867,0.5464 v 6.4156 c -0.66533,0.157733 -1.268,0.260933 -1.80533,0.308266 -0.53867,0.04747 -1.02934,0.07187 -1.47334,0.07187 -1.42533,0 -2.50266,-0.278133 -3.23066,-0.831733 -0.72934,-0.5536 -1.188,-1.338534 -1.37867,-2.352134 l -0.14267,-1.140533 c -1.10933,1.426 -2.43066,2.518133 -3.968,3.278667 -1.53733,0.7604 -3.16,1.140533 -4.87066,1.140533"
       style="fill:#2c378f;fill-opacity:1;fill-rule:nonzero;stroke:none;stroke-width:0.133333" />
    <path
       id="path7"
       d="m 320.19999,68.841736 c -1.04533,0.443733 -2.24266,0.8552 -3.588,1.235466 -1.34666,0.380134 -2.70133,0.570267 -4.06266,0.570267 -0.95067,0 -1.84667,-0.1192 -2.68534,-0.3568 -0.84,-0.236933 -1.576,-0.617067 -2.20933,-1.14 -0.63467,-0.5224 -1.13333,-1.212 -1.49733,-2.066667 -0.36534,-0.855733 -0.54534,-1.884933 -0.54534,-3.089599 V 50.974536 h -3.18533 v -5.75 h 3.18533 V 37.28867 h 7.60267 v 7.935866 h 5.084 v 5.75 h -5.084 v 10.4068 c 0,0.824 0.20533,1.417733 0.61733,1.781733 0.41067,0.364667 0.93467,0.5464 1.568,0.5464 0.56934,0 1.156,-0.09533 1.75867,-0.285466 0.60133,-0.19 1.124,-0.394667 1.568,-0.617067 l 1.47333,6.0348"
       style="fill:#2c378f;fill-opacity:1;fill-rule:nonzero;stroke:none;stroke-width:0.133333" />
    <path
       id="path8"
       d="m 333.17199,65.182403 c 0.824,0 1.62267,-0.142134 2.39867,-0.4276 0.776,-0.284934 1.41866,-0.665067 1.92533,-1.140667 0.72933,-0.5692 1.09333,-1.1708 1.09333,-1.8052 v -2.376533 c -0.66533,-0.253067 -1.38666,-0.451067 -2.16266,-0.5932 -0.776,-0.1428 -1.496,-0.214667 -2.16134,-0.214667 -1.39466,0 -2.54266,0.3172 -3.44533,0.950533 -0.904,0.6344 -1.35466,1.457867 -1.35466,2.471334 0,0.919333 0.348,1.671466 1.04533,2.257333 0.696,0.586533 1.584,0.878667 2.66133,0.878667 z m -2.23333,5.465066 c -1.236,0 -2.384,-0.1984 -3.44533,-0.593733 -1.06134,-0.395867 -1.972,-0.950534 -2.732,-1.663467 -0.76,-0.712533 -1.36267,-1.552133 -1.80667,-2.5188 -0.444,-0.9656 -0.66533,-2.019333 -0.66533,-3.159333 0,-1.236 0.26266,-2.36 0.784,-3.374533 0.524,-1.013067 1.26,-1.883867 2.21066,-2.613067 0.94934,-0.728533 2.07334,-1.298933 3.37334,-1.710933 1.29866,-0.411467 2.74,-0.618134 4.324,-0.618134 1.04533,0 2.05999,0.088 3.04133,0.261867 0.98266,0.174533 1.83733,0.435467 2.56666,0.783867 v -1.140534 c 0,-2.882399 -1.664,-4.324533 -4.98933,-4.324533 -1.364,0 -2.66133,0.2308 -3.89733,0.6896 -1.236,0.459867 -2.53467,1.1484 -3.896,2.0672 l -2.23467,-4.752133 c 1.648,-1.076533 3.35867,-1.8848 5.13334,-2.423867 1.77333,-0.538133 3.65866,-0.807866 5.65466,-0.807866 3.76933,0 6.684,0.887466 8.744,2.661466 2.05867,1.774934 3.088,4.371867 3.088,7.7932 v 6.415067 c 0,0.760533 0.11867,1.2912 0.35733,1.591733 0.23734,0.3016 0.656,0.483333 1.25867,0.5464 v 6.4156 c -0.66533,0.157733 -1.268,0.260933 -1.80533,0.308266 -0.54,0.04747 -1.03067,0.07187 -1.47334,0.07187 -1.42533,0 -2.504,-0.278133 -3.232,-0.831733 -0.72933,-0.5536 -1.18666,-1.338534 -1.37733,-2.352134 l -0.14267,-1.140533 c -1.10933,1.426 -2.432,2.518133 -3.968,3.278667 -1.53733,0.7604 -3.15999,1.140533 -4.87066,1.140533"
       style="fill:#2c378f;fill-opacity:1;fill-rule:nonzero;stroke:none;stroke-width:0.133333" />
    <path
       id="path9"
       d="m 154.216,100.10893 h 10.78666 c 0.98134,0 1.87734,-0.213462 2.684,-0.641062 0.808,-0.4276 1.49734,-0.998 2.068,-1.710933 0.56934,-0.713067 1.01334,-1.536 1.32934,-2.470933 0.316,-0.933867 0.476,-1.907734 0.476,-2.9224 0,-1.045333 -0.18267,-2.0348 -0.54667,-2.969733 -0.364,-0.9344 -0.85467,-1.75 -1.47333,-2.447467 -0.61734,-0.6968 -1.34667,-1.242667 -2.18534,-1.639467 -0.84,-0.395866 -1.72,-0.593866 -2.63733,-0.593866 H 154.216 Z m -3.27867,15.39694 V 81.766802 h 13.96933 c 1.45734,0 2.796,0.309333 4.016,0.926533 1.21867,0.617734 2.272,1.425467 3.16,2.423467 0.88667,0.9984 1.576,2.1312 2.06667,3.397867 0.49067,1.2672 0.73733,2.55 0.73733,3.848933 0,1.3948 -0.23066,2.7324 -0.68933,4.015733 -0.46,1.2828 -1.11733,2.416133 -1.972,3.397333 -0.856,0.982262 -1.87733,1.774532 -3.06533,2.376002 -1.188,0.60213 -2.51067,0.9032 -3.968,0.9032 h -10.976 v 12.45 h -3.27867"
       style="fill:#2c378f;fill-opacity:1;fill-rule:nonzero;stroke:none;stroke-width:0.133333" />
    <path
       id="path10"
       d="m 187.24133,113.50947 c 1.42667,0 2.84267,-0.30827 4.25333,-0.92654 1.408,-0.61773 2.52534,-1.46466 3.34934,-2.54226 0.22133,-0.2848 0.412,-0.59374 0.57066,-0.92654 0.15734,-0.33226 0.23734,-0.6416 0.23734,-0.926 V 104.148 c -1.07734,-0.4104 -2.20134,-0.7276 -3.37334,-0.94947 -1.172,-0.22133 -2.31333,-0.3328 -3.42133,-0.3328 -2.31333,0 -4.18933,0.4672 -5.63067,1.4016 -1.44133,0.9348 -2.16133,2.226 -2.16133,3.87294 0,0.66453 0.124,1.31453 0.37867,1.94786 0.25333,0.6344 0.64133,1.20467 1.16533,1.71094 0.52133,0.50733 1.164,0.9192 1.924,1.23586 0.76,0.3172 1.66267,0.47454 2.708,0.47454 z m -0.808,2.47133 c -1.26667,0 -2.42267,-0.1984 -3.46933,-0.59373 -1.04534,-0.39587 -1.94,-0.94267 -2.684,-1.64014 -0.74534,-0.69573 -1.324,-1.5036 -1.73467,-2.42293 -0.412,-0.91867 -0.61733,-1.8848 -0.61733,-2.89893 0,-1.14014 0.252,-2.17707 0.76,-3.112 0.50666,-0.93427 1.21866,-1.73427 2.13866,-2.4 0.91734,-0.66507 2.01867,-1.18014 3.30134,-1.5448 1.284,-0.36347 2.70133,-0.54627 4.25466,-0.54627 1.236,0 2.50134,0.11147 3.8,0.3328 1.3,0.22187 2.456,0.53907 3.46934,0.95053 v -2.233862 c 0,-2.185466 -0.62534,-3.919866 -1.876,-5.2032 -1.252,-1.283333 -2.93867,-1.924399 -5.06134,-1.924399 -1.33066,0 -2.65333,0.254133 -3.968,0.760399 -1.31466,0.507334 -2.65333,1.234934 -4.01466,2.185467 l -1.14134,-2.138133 c 1.616,-1.076533 3.184,-1.884267 4.704,-2.423333 1.52134,-0.538534 3.104,-0.8084 4.75334,-0.8084 3.00933,0 5.40133,0.871866 7.17466,2.614133 1.77467,1.742133 2.66134,4.150533 2.66134,7.222928 V 111.324 c 0,0.8876 0.38,1.3308 1.13999,1.3308 v 2.85107 c -0.25333,0.0312 -0.49066,0.0547 -0.71199,0.0708 -0.22267,0.0156 -0.41334,0.024 -0.57067,0.024 -0.63333,0 -1.212,-0.19014 -1.73333,-0.5704 -0.524,-0.38014 -0.81734,-0.95054 -0.88134,-1.71094 l -0.0947,-1.94786 c -1.07734,1.45786 -2.49467,2.59013 -4.252,3.39786 -1.75867,0.80734 -3.54134,1.21147 -5.34667,1.21147"
       style="fill:#2c378f;fill-opacity:1;fill-rule:nonzero;stroke:none;stroke-width:0.133333" />
    <path
       id="path11"
       d="m 218.98399,93.599068 c -2.18666,0.064 -4.08666,0.665067 -5.70266,1.805734 -1.61467,1.140666 -2.756,2.7088 -3.42134,4.704128 v 15.39694 h -3.232 V 90.748002 h 3.04267 v 5.940133 c 0.85467,-1.742133 1.97867,-3.191733 3.37333,-4.3484 1.39334,-1.155733 2.89867,-1.7344 4.51467,-1.7344 0.28533,0 0.55333,0 0.80667,0 0.25466,0 0.46,0.01613 0.61866,0.04733 v 2.946399"
       style="fill:#2c378f;fill-opacity:1;fill-rule:nonzero;stroke:none;stroke-width:0.133333" />
    <path
       id="path12"
       d="M 224.01999,115.50587 V 90.748002 h 3.232 v 24.757868 z m 0,-29.937601 v -4.752 h 3.232 v 4.752 h -3.232"
       style="fill:#2c378f;fill-opacity:1;fill-rule:nonzero;stroke:none;stroke-width:0.133333" />
    <path
       id="path13"
       d="m 243.21866,115.9808 c -1.93333,0 -3.81867,-0.3172 -5.65467,-0.95053 -1.83733,-0.63334 -3.42266,-1.55147 -4.75333,-2.75574 l 1.47467,-2.1864 c 1.392,1.14067 2.81066,1.9964 4.252,2.56667 1.44133,0.56973 2.98533,0.85467 4.63333,0.85467 1.996,0 3.588,-0.4036 4.776,-1.21147 1.18667,-0.80773 1.78267,-1.95573 1.78267,-3.44533 0,-0.69574 -0.16,-1.27494 -0.476,-1.7344 -0.31734,-0.4588 -0.78534,-0.8624 -1.40267,-1.21134 -0.61733,-0.34853 -1.39467,-0.65733 -2.328,-0.92666 -0.93467,-0.26867 -2.01867,-0.5468 -3.25467,-0.83227 -1.42533,-0.34733 -2.66133,-0.69587 -3.70666,-1.0448 -1.04667,-0.3484 -1.90934,-0.74427 -2.59067,-1.188 -0.68133,-0.44373 -1.18667,-0.9896 -1.52,-1.6396 -0.332,-0.648932 -0.49867,-1.464532 -0.49867,-2.446798 0,-1.236 0.244,-2.3292 0.736,-3.279734 0.49067,-0.95 1.156,-1.734399 1.996,-2.352133 0.83867,-0.6172 1.82134,-1.084266 2.94534,-1.401466 1.12533,-0.316667 2.32133,-0.4756 3.58933,-0.4756 1.90133,0 3.62533,0.309466 5.18,0.927066 1.55067,0.6172 2.80267,1.433867 3.75333,2.447467 l -1.56933,1.900533 c -0.91733,-0.950533 -2.03467,-1.663067 -3.34933,-2.138 -1.31467,-0.4756 -2.684,-0.713066 -4.11067,-0.713066 -0.85467,0 -1.648,0.08747 -2.376,0.260933 -0.72933,0.174533 -1.37067,0.452133 -1.924,0.832266 -0.55467,0.379734 -0.99067,0.863067 -1.308,1.448934 -0.316,0.587066 -0.47467,1.2756 -0.47467,2.0672 0,0.6656 0.11067,1.204666 0.33334,1.615066 0.22133,0.412534 0.58533,0.769334 1.092,1.069862 0.50666,0.3016 1.14933,0.57027 1.92533,0.80787 0.776,0.238 1.71867,0.48333 2.828,0.7364 1.58267,0.38027 2.976,0.7604 4.18,1.14067 1.20533,0.38013 2.21067,0.8244 3.01867,1.33013 0.808,0.50733 1.41733,1.12507 1.82933,1.85373 0.412,0.72907 0.61733,1.6156 0.61733,2.6604 0,2.2812 -0.87066,4.08747 -2.61333,5.4176 -1.74133,1.3308 -4.08667,1.99587 -7.032,1.99587"
       style="fill:#2c378f;fill-opacity:1;fill-rule:nonzero;stroke:none;stroke-width:0.133333" />
    <path
       id="path14"
       d="m 151.78933,137.31987 h -1.436 v -9.07547 h 1.436 v 9.07547"
       style="fill:#2b398c;fill-opacity:1;fill-rule:nonzero;stroke:none;stroke-width:0.133333" />
    <path
       id="path15"
       d="m 153.772,131.26933 -0.73334,-0.45466 c 0.356,-0.51614 0.53734,-1.06147 0.54934,-1.6364 v -0.93387 h 1.25866 v 0.81507 c 0,0.40573 -0.104,0.81453 -0.30933,1.226 -0.20667,0.412 -0.46267,0.7396 -0.76533,0.98386"
       style="fill:#2b398c;fill-opacity:1;fill-rule:nonzero;stroke:none;stroke-width:0.133333" />
    <path
       id="path16"
       d="m 159.18666,128.2444 h 1.63734 l -1.63734,1.79053 -1.152,-0.003 z m -0.32533,3.71613 c -0.39333,0 -0.71067,0.138 -0.95333,0.41347 -0.24134,0.27613 -0.39734,0.66053 -0.464,1.15267 h 2.73466 v -0.1068 c -0.0307,-0.48014 -0.15866,-0.84374 -0.384,-1.09014 -0.224,-0.24573 -0.53466,-0.3692 -0.93333,-0.3692 z m 0.172,5.47654 c -0.91067,0 -1.64667,-0.2864 -2.212,-0.85987 -0.56533,-0.57187 -0.848,-1.336 -0.848,-2.288 v -0.17867 c 0,-0.63693 0.12267,-1.20733 0.36933,-1.70986 0.24534,-0.5016 0.592,-0.89334 1.03734,-1.1724 0.444,-0.27974 0.94,-0.41987 1.488,-0.41987 0.86933,0 1.54266,0.27813 2.01733,0.83333 0.47467,0.5552 0.712,1.3412 0.712,2.3568 v 0.57867 H 157.42 c 0.044,0.52813 0.22,0.94533 0.52933,1.2536 0.30933,0.30627 0.69867,0.46093 1.168,0.46093 0.65733,0 1.192,-0.26666 1.60667,-0.7984 l 0.77333,0.73854 c -0.25733,0.3828 -0.59867,0.67866 -1.02533,0.8896 -0.42667,0.2104 -0.90667,0.3156 -1.43867,0.3156"
       style="fill:#2b398c;fill-opacity:1;fill-rule:nonzero;stroke:none;stroke-width:0.133333" />
    <path
       id="path17"
       d="m 165.45733,136.29173 c 0.35867,0 0.656,-0.1052 0.892,-0.31293 0.236,-0.20947 0.36267,-0.46667 0.37867,-0.77507 h 1.352 c -0.0147,0.39894 -0.13867,0.76987 -0.37067,1.11507 -0.23333,0.34387 -0.548,0.6172 -0.94533,0.8172 -0.39867,0.20107 -0.828,0.30107 -1.28934,0.30107 -0.89333,0 -1.60266,-0.28907 -2.12666,-0.86774 -0.52267,-0.57866 -0.78534,-1.37866 -0.78534,-2.39893 v -0.14787 c 0,-0.9724 0.26,-1.75213 0.78,-2.33653 0.52,-0.5848 1.228,-0.8776 2.12667,-0.8776 0.76133,0 1.37867,0.22187 1.85867,0.66467 0.47733,0.4432 0.72933,1.02546 0.752,1.74626 h -1.352 c -0.016,-0.36666 -0.14134,-0.66773 -0.376,-0.9036 -0.23334,-0.2364 -0.532,-0.3552 -0.89467,-0.3552 -0.464,0 -0.82267,0.1688 -1.07467,0.5052 -0.25333,0.33694 -0.38,0.84787 -0.384,1.5328 v 0.2308 c 0,0.6932 0.124,1.21094 0.37467,1.5504 0.24933,0.34174 0.612,0.512 1.084,0.512"
       style="fill:#2b398c;fill-opacity:1;fill-rule:nonzero;stroke:none;stroke-width:0.133333" />
    <path
       id="path18"
       d="m 170.45333,134.18813 c 0,0.65827 0.13467,1.17347 0.40667,1.54534 0.272,0.37186 0.65066,0.55826 1.13466,0.55826 0.484,0 0.86134,-0.18906 1.13067,-0.56773 0.27067,-0.3776 0.40533,-0.93067 0.40533,-1.65987 0,-0.64533 -0.13866,-1.15826 -0.416,-1.5364 -0.27733,-0.37813 -0.656,-0.5672 -1.132,-0.5672 -0.46933,0 -0.84133,0.1864 -1.116,0.5588 -0.276,0.37187 -0.41333,0.92867 -0.41333,1.6688 z m -1.43733,-0.124 c 0,-0.62706 0.12533,-1.19053 0.37333,-1.69266 0.248,-0.50267 0.59733,-0.888 1.04533,-1.1584 0.44934,-0.2692 0.96534,-0.40467 1.548,-0.40467 0.86267,0 1.56267,0.27813 2.1,0.83333 0.53867,0.5552 0.828,1.29174 0.872,2.2104 l 0.005,0.336 c 0,0.63067 -0.12,1.1932 -0.36267,1.69067 -0.24267,0.49573 -0.588,0.8796 -1.04,1.15053 -0.45067,0.27187 -0.972,0.40774 -1.56267,0.40774 -0.90133,0 -1.624,-0.3 -2.16533,-0.9 -0.54133,-0.60107 -0.81333,-1.40254 -0.81333,-2.40254 v -0.0704"
       style="fill:#2b398c;fill-opacity:1;fill-rule:nonzero;stroke:none;stroke-width:0.133333" />
    <path
       id="path19"
       d="m 177.824,137.31987 h -1.436 v -9.07547 h 1.436 v 9.07547"
       style="fill:#2b398c;fill-opacity:1;fill-rule:nonzero;stroke:none;stroke-width:0.133333" />
    <path
       id="path20"
       d="m 182.15066,131.96053 c -0.39333,0 -0.71066,0.138 -0.95333,0.41347 -0.24267,0.27613 -0.39733,0.66053 -0.46533,1.15267 h 2.736 v -0.1068 c -0.0307,-0.48014 -0.15867,-0.84374 -0.384,-1.09014 -0.224,-0.24573 -0.53467,-0.3692 -0.93334,-0.3692 z m 0.172,5.47654 c -0.91066,0 -1.64666,-0.2864 -2.212,-0.85987 -0.56533,-0.57187 -0.848,-1.336 -0.848,-2.288 v -0.17867 c 0,-0.63693 0.12267,-1.20733 0.368,-1.70986 0.24667,-0.5016 0.59334,-0.89334 1.03867,-1.1724 0.444,-0.27974 0.94,-0.41987 1.488,-0.41987 0.86933,0 1.54267,0.27813 2.01733,0.83333 0.47467,0.5552 0.712,1.3412 0.712,2.3568 v 0.57867 h -4.17733 c 0.044,0.52813 0.22,0.94533 0.528,1.2536 0.31067,0.30627 0.7,0.46093 1.168,0.46093 0.65867,0 1.19333,-0.26666 1.60667,-0.7984 l 0.77466,0.73854 c -0.25733,0.3828 -0.59866,0.67866 -1.02533,0.8896 -0.42667,0.2104 -0.908,0.3156 -1.43867,0.3156"
       style="fill:#2b398c;fill-opacity:1;fill-rule:nonzero;stroke:none;stroke-width:0.133333" />
    <path
       id="path21"
       d="m 190.42133,134.20013 c 0,0.65054 0.12533,1.1572 0.37467,1.52134 0.25066,0.364 0.60533,0.5464 1.06666,0.5464 0.588,0 1.01734,-0.26254 1.288,-0.78547 v -2.73027 c -0.26266,-0.51146 -0.68933,-0.76813 -1.276,-0.76813 -0.46533,0 -0.82266,0.18427 -1.076,0.55307 -0.25066,0.36826 -0.37733,0.92293 -0.37733,1.66306 z m -1.436,-0.124 c 0,-0.98546 0.22933,-1.77546 0.68667,-2.3724 0.456,-0.5964 1.068,-0.89533 1.83733,-0.89533 0.676,0 1.224,0.23653 1.64133,0.70893 v -3.27293 h 1.436 v 9.07547 H 193.288 l -0.072,-0.66254 c -0.428,0.51987 -1.00267,0.77974 -1.71867,0.77974 -0.74933,0 -1.35467,-0.30107 -1.81733,-0.9036 -0.46267,-0.60267 -0.69467,-1.42134 -0.69467,-2.45734"
       style="fill:#2b398c;fill-opacity:1;fill-rule:nonzero;stroke:none;stroke-width:0.133333" />
    <path
       id="path22"
       d="m 198.84933,131.96053 c -0.39333,0 -0.71067,0.138 -0.952,0.41347 -0.24267,0.27613 -0.39733,0.66053 -0.46533,1.15267 h 2.73599 v -0.1068 c -0.032,-0.48014 -0.15866,-0.84374 -0.38399,-1.09014 -0.224,-0.24573 -0.536,-0.3692 -0.93467,-0.3692 z m 0.172,5.47654 c -0.90933,0 -1.64667,-0.2864 -2.212,-0.85987 -0.56533,-0.57187 -0.848,-1.336 -0.848,-2.288 v -0.17867 c 0,-0.63693 0.12267,-1.20733 0.36933,-1.70986 0.24534,-0.5016 0.592,-0.89334 1.03734,-1.1724 0.444,-0.27974 0.94,-0.41987 1.488,-0.41987 0.87066,0 1.54266,0.27813 2.01733,0.83333 0.47466,0.5552 0.712,1.3412 0.712,2.3568 v 0.57867 H 197.408 c 0.0453,0.52813 0.22,0.94533 0.52933,1.2536 0.30933,0.30627 0.69867,0.46093 1.168,0.46093 0.65733,0 1.192,-0.26666 1.60666,-0.7984 l 0.77334,0.73854 c -0.256,0.3828 -0.59734,0.67866 -1.02534,0.8896 -0.42666,0.2104 -0.90666,0.3156 -1.43866,0.3156"
       style="fill:#2b398c;fill-opacity:1;fill-rule:nonzero;stroke:none;stroke-width:0.133333" />
    <path
       id="path23"
       d="m 206.40266,135.5824 c 0,-0.25573 -0.10533,-0.4516 -0.316,-0.58493 -0.21067,-0.13334 -0.56,-0.252 -1.048,-0.35467 -0.488,-0.1016 -0.896,-0.23227 -1.224,-0.3896 -0.716,-0.34627 -1.07467,-0.84947 -1.07467,-1.5068 0,-0.55147 0.232,-1.0124 0.69734,-1.38227 0.464,-0.37026 1.056,-0.55573 1.772,-0.55573 0.764,0 1.38133,0.1896 1.85333,0.56773 0.46933,0.3776 0.70533,0.86827 0.70533,1.4708 h -1.436 c 0,-0.27546 -0.10133,-0.5052 -0.308,-0.68853 -0.204,-0.1828 -0.476,-0.2744 -0.81466,-0.2744 -0.31467,0 -0.572,0.0729 -0.77067,0.21867 -0.2,0.14586 -0.29867,0.34066 -0.29867,0.5844 0,0.2208 0.092,0.39226 0.27734,0.51453 0.18533,0.122 0.56,0.2448 1.12266,0.3688 0.564,0.12453 1.00534,0.2724 1.32667,0.44427 0.32133,0.1708 0.56,0.376 0.71467,0.61613 0.156,0.2412 0.23333,0.53187 0.23333,0.87453 0,0.5744 -0.23867,1.04107 -0.71467,1.39734 -0.47733,0.35733 -1.1,0.5344 -1.872,0.5344 -0.524,0 -0.992,-0.0943 -1.4,-0.28227 -0.41066,-0.1896 -0.72933,-0.44947 -0.95866,-0.78027 -0.228,-0.33066 -0.34267,-0.688 -0.34267,-1.0708 h 1.39467 c 0.02,0.34014 0.148,0.6016 0.384,0.7844 0.23733,0.18227 0.54933,0.27454 0.94,0.27454 0.37733,0 0.66533,-0.072 0.86266,-0.21627 0.196,-0.14373 0.29467,-0.33173 0.29467,-0.564"
       style="fill:#2b398c;fill-opacity:1;fill-rule:nonzero;stroke:none;stroke-width:0.133333" />
    <path
       id="path24"
       d="m 213.84666,137.31987 h -1.436 v -6.3932 h 1.436 z m -1.524,-8.05307 c 0,-0.2208 0.0707,-0.40373 0.20933,-0.54947 0.14134,-0.14586 0.34,-0.2188 0.6,-0.2188 0.26,0 0.46134,0.0729 0.60267,0.2188 0.14267,0.14574 0.21333,0.32867 0.21333,0.54947 0,0.21667 -0.0707,0.39627 -0.21333,0.54013 -0.14133,0.14427 -0.34267,0.2156 -0.60267,0.2156 -0.26,0 -0.45866,-0.0713 -0.6,-0.2156 -0.13866,-0.14386 -0.20933,-0.32346 -0.20933,-0.54013"
       style="fill:#2b398c;fill-opacity:1;fill-rule:nonzero;stroke:none;stroke-width:0.133333" />
    <path
       id="path25"
       d="m 216.86266,130.92667 0.0413,0.73853 c 0.47334,-0.5708 1.09334,-0.8568 1.86134,-0.8568 1.332,0 2.00933,0.76253 2.032,2.28653 v 4.22494 h -1.436 v -4.14214 c 0,-0.40573 -0.0867,-0.70626 -0.26134,-0.90053 -0.176,-0.19533 -0.46266,-0.2932 -0.86133,-0.2932 -0.57733,0 -1.00933,0.2624 -1.292,0.78587 v 4.55 h -1.436 v -6.3932 h 1.352"
       style="fill:#2b398c;fill-opacity:1;fill-rule:nonzero;stroke:none;stroke-width:0.133333" />
    <path
       id="path26"
       d="m 223.55999,134.20013 c 0,0.64267 0.13067,1.14787 0.39334,1.51454 0.26133,0.36933 0.624,0.5532 1.08933,0.5532 0.57867,0 1.008,-0.248 1.288,-0.74534 v -2.81093 c -0.272,-0.48547 -0.69733,-0.7276 -1.276,-0.7276 -0.47333,0 -0.84,0.18747 -1.10133,0.56147 -0.26267,0.3744 -0.39334,0.92493 -0.39334,1.65466 z m -1.43066,-0.124 c 0,-0.9932 0.23333,-1.78546 0.70133,-2.37866 0.46533,-0.59214 1.08533,-0.88907 1.85733,-0.88907 0.728,0 1.30267,0.25467 1.71867,0.76253 l 0.0653,-0.64426 h 1.29467 v 6.1984 c 0,0.8376 -0.26133,1.5 -0.78267,1.9844 -0.52266,0.48546 -1.22666,0.72653 -2.11333,0.72653 -0.46933,0 -0.92533,-0.0973 -1.37333,-0.29213 -0.44667,-0.1948 -0.78667,-0.45054 -1.01867,-0.76507 l 0.68,-0.86307 c 0.44,0.52454 0.984,0.78694 1.62933,0.78694 0.47734,0 0.85334,-0.12907 1.12934,-0.388 0.27466,-0.25734 0.41333,-0.63747 0.41333,-1.13747 v -0.4308 c -0.41333,0.46147 -0.96533,0.69067 -1.65333,0.69067 -0.74934,0 -1.36134,-0.2968 -1.83467,-0.8916 -0.476,-0.5948 -0.71333,-1.4172 -0.71333,-2.46934"
       style="fill:#2b398c;fill-opacity:1;fill-rule:nonzero;stroke:none;stroke-width:0.133333" />
    <path
       id="path27"
       d="m 232.33066,128.2444 h 1.636 l -1.636,1.79053 -1.15333,-0.003 z m -0.32533,3.71613 c -0.39334,0 -0.712,0.138 -0.95334,0.41347 -0.24266,0.27613 -0.39733,0.66053 -0.46533,1.15267 h 2.736 v -0.1068 c -0.032,-0.48014 -0.15867,-0.84374 -0.384,-1.09014 -0.224,-0.24573 -0.536,-0.3692 -0.93333,-0.3692 z m 0.172,5.47654 c -0.91067,0 -1.648,-0.2864 -2.21334,-0.85987 -0.56533,-0.57187 -0.84666,-1.336 -0.84666,-2.288 v -0.17867 c 0,-0.63693 0.12133,-1.20733 0.368,-1.70986 0.24666,-0.5016 0.592,-0.89334 1.03733,-1.1724 0.444,-0.27974 0.94,-0.41987 1.488,-0.41987 0.87067,0 1.544,0.27813 2.01733,0.83333 0.476,0.5552 0.712,1.3412 0.712,2.3568 v 0.57867 h -4.176 c 0.044,0.52813 0.22,0.94533 0.528,1.2536 0.30934,0.30627 0.69867,0.46093 1.168,0.46093 0.65734,0 1.19334,-0.26666 1.60667,-0.7984 l 0.77333,0.73854 c -0.256,0.3828 -0.59733,0.67866 -1.024,0.8896 -0.428,0.2104 -0.908,0.3156 -1.43866,0.3156"
       style="fill:#2b398c;fill-opacity:1;fill-rule:nonzero;stroke:none;stroke-width:0.133333" />
    <path
       id="path28"
       d="m 237.30799,130.92667 0.0413,0.73853 c 0.47333,-0.5708 1.09333,-0.8568 1.86133,-0.8568 1.332,0 2.00933,0.76253 2.032,2.28653 v 4.22494 h -1.436 v -4.14214 c 0,-0.40573 -0.0867,-0.70626 -0.26133,-0.90053 -0.176,-0.19533 -0.46267,-0.2932 -0.86134,-0.2932 -0.57733,0 -1.00933,0.2624 -1.292,0.78587 v 4.55 h -1.43733 v -6.3932 h 1.35333"
       style="fill:#2b398c;fill-opacity:1;fill-rule:nonzero;stroke:none;stroke-width:0.133333" />
    <path
       id="path29"
       d="m 244.35333,137.31987 h -1.436 v -6.3932 h 1.436 z m -1.524,-8.05307 c 0,-0.2208 0.0693,-0.40373 0.20933,-0.54947 0.14,-0.14586 0.34,-0.2188 0.6,-0.2188 0.26,0 0.46133,0.0729 0.60267,0.2188 0.14266,0.14574 0.21333,0.32867 0.21333,0.54947 0,0.21667 -0.0707,0.39627 -0.21333,0.54013 -0.14134,0.14427 -0.34267,0.2156 -0.60267,0.2156 -0.26,0 -0.46,-0.0713 -0.6,-0.2156 -0.14,-0.14386 -0.20933,-0.32346 -0.20933,-0.54013"
       style="fill:#2b398c;fill-opacity:1;fill-rule:nonzero;stroke:none;stroke-width:0.133333" />
    <path
       id="path30"
       d="m 248.67999,131.96053 c -0.392,0 -0.71066,0.138 -0.952,0.41347 -0.24266,0.27613 -0.39733,0.66053 -0.46533,1.15267 h 2.736 v -0.1068 c -0.032,-0.48014 -0.15867,-0.84374 -0.384,-1.09014 -0.224,-0.24573 -0.536,-0.3692 -0.93467,-0.3692 z m 0.172,5.47654 c -0.90933,0 -1.64666,-0.2864 -2.212,-0.85987 -0.56533,-0.57187 -0.848,-1.336 -0.848,-2.288 v -0.17867 c 0,-0.63693 0.12267,-1.20733 0.36934,-1.70986 0.24533,-0.5016 0.592,-0.89334 1.03733,-1.1724 0.444,-0.27974 0.94,-0.41987 1.488,-0.41987 0.87067,0 1.544,0.27813 2.01733,0.83333 0.47467,0.5552 0.712,1.3412 0.712,2.3568 v 0.57867 h -4.17733 c 0.0453,0.52813 0.22,0.94533 0.52933,1.2536 0.30934,0.30627 0.69867,0.46093 1.168,0.46093 0.65734,0 1.192,-0.26666 1.60667,-0.7984 l 0.77333,0.73854 c -0.256,0.3828 -0.59733,0.67866 -1.02533,0.8896 -0.42667,0.2104 -0.90667,0.3156 -1.43867,0.3156"
       style="fill:#2b398c;fill-opacity:1;fill-rule:nonzero;stroke:none;stroke-width:0.133333" />
    <path
       id="path31"
       d="m 256.52266,136.69333 c -0.42133,0.49587 -1.01867,0.74374 -1.79467,0.74374 -0.69466,0 -1.21866,-0.20254 -1.57466,-0.60774 -0.35734,-0.40533 -0.53467,-0.99333 -0.53467,-1.76146 v -4.1412 h 1.436 v 4.124 c 0,0.812 0.336,1.2172 1.00933,1.2172 0.69734,0 1.168,-0.24907 1.412,-0.75054 v -4.59066 h 1.436 v 6.3932 h -1.35333 l -0.036,-0.62654"
       style="fill:#2b398c;fill-opacity:1;fill-rule:nonzero;stroke:none;stroke-width:0.133333" />
    <path
       id="path32"
       d="m 262.84266,132.23867 c -0.18933,-0.0317 -0.38533,-0.0475 -0.58533,-0.0475 -0.65734,0 -1.1,0.25213 -1.32934,0.75627 v 4.3724 h -1.43466 v -6.3932 h 1.36933 l 0.036,0.71506 c 0.34667,-0.5552 0.828,-0.83333 1.44267,-0.83333 0.204,0 0.37333,0.0281 0.50666,0.0833 l -0.005,1.34694"
       style="fill:#2b398c;fill-opacity:1;fill-rule:nonzero;stroke:none;stroke-width:0.133333" />
    <path
       id="path33"
       d="m 263.97333,133.1012 c 0,-0.22813 0.0733,-0.41987 0.21866,-0.57347 0.14667,-0.15373 0.35067,-0.23026 0.61467,-0.23026 0.264,0 0.47067,0.0765 0.61733,0.23026 0.148,0.1536 0.22134,0.34534 0.22134,0.57347 0,0.2328 -0.0773,0.42133 -0.23067,0.56667 -0.15333,0.1468 -0.35467,0.21866 -0.608,0.21866 -0.256,0 -0.45867,-0.0719 -0.608,-0.21866 -0.14933,-0.14534 -0.22533,-0.33387 -0.22533,-0.56667"
       style="fill:#2b398c;fill-opacity:1;fill-rule:nonzero;stroke:none;stroke-width:0.133333" />
    <path
       id="path34"
       d="m 270.04933,131.96053 c -0.39334,0 -0.71067,0.138 -0.95334,0.41347 -0.24266,0.27613 -0.39733,0.66053 -0.46533,1.15267 h 2.736 v -0.1068 c -0.0307,-0.48014 -0.15867,-0.84374 -0.384,-1.09014 -0.224,-0.24573 -0.53467,-0.3692 -0.93333,-0.3692 z m 0.172,5.47654 c -0.91067,0 -1.648,-0.2864 -2.212,-0.85987 -0.56534,-0.57187 -0.848,-1.336 -0.848,-2.288 v -0.17867 c 0,-0.63693 0.12266,-1.20733 0.368,-1.70986 0.24666,-0.5016 0.592,-0.89334 1.03733,-1.1724 0.444,-0.27974 0.94133,-0.41987 1.48933,-0.41987 0.86934,0 1.54267,0.27813 2.016,0.83333 0.476,0.5552 0.71334,1.3412 0.71334,2.3568 v 0.57867 h -4.17734 c 0.044,0.52813 0.22,0.94533 0.528,1.2536 0.31067,0.30627 0.7,0.46093 1.168,0.46093 0.65734,0 1.19334,-0.26666 1.60667,-0.7984 l 0.77333,0.73854 c -0.256,0.3828 -0.59733,0.67866 -1.024,0.8896 -0.428,0.2104 -0.908,0.3156 -1.43866,0.3156"
       style="fill:#2b398c;fill-opacity:1;fill-rule:nonzero;stroke:none;stroke-width:0.133333" />
    <path
       id="path35"
       d="m 277.60399,135.5824 c 0,-0.25573 -0.10533,-0.4516 -0.316,-0.58493 -0.212,-0.13334 -0.56,-0.252 -1.04933,-0.35467 -0.488,-0.1016 -0.89467,-0.23227 -1.224,-0.3896 -0.716,-0.34627 -1.07333,-0.84947 -1.07333,-1.5068 0,-0.55147 0.232,-1.0124 0.696,-1.38227 0.46533,-0.37026 1.056,-0.55573 1.772,-0.55573 0.76533,0 1.38133,0.1896 1.85333,0.56773 0.46933,0.3776 0.70533,0.86827 0.70533,1.4708 h -1.436 c 0,-0.27546 -0.10133,-0.5052 -0.30666,-0.68853 -0.20534,-0.1828 -0.47734,-0.2744 -0.816,-0.2744 -0.31467,0 -0.57067,0.0729 -0.77067,0.21867 -0.19867,0.14586 -0.29733,0.34066 -0.29733,0.5844 0,0.2208 0.092,0.39226 0.27733,0.51453 0.184,0.122 0.55867,0.2448 1.12133,0.3688 0.564,0.12453 1.00534,0.2724 1.32667,0.44427 0.32267,0.1708 0.56,0.376 0.716,0.61613 0.156,0.2412 0.232,0.53187 0.232,0.87453 0,0.5744 -0.23733,1.04107 -0.71467,1.39734 -0.476,0.35733 -1.1,0.5344 -1.872,0.5344 -0.524,0 -0.99066,-0.0943 -1.4,-0.28227 -0.40933,-0.1896 -0.72933,-0.44947 -0.95866,-0.78027 -0.22667,-0.33066 -0.34134,-0.688 -0.34134,-1.0708 h 1.39334 c 0.02,0.34014 0.14933,0.6016 0.38533,0.7844 0.236,0.18227 0.54933,0.27454 0.94,0.27454 0.37733,0 0.66533,-0.072 0.86133,-0.21627 0.19734,-0.14373 0.296,-0.33173 0.296,-0.564"
       style="fill:#2b398c;fill-opacity:1;fill-rule:nonzero;stroke:none;stroke-width:0.133333" />
    <path
       id="path36"
       d="m 284.69866,134.20013 c 0,0.64267 0.132,1.14787 0.39333,1.51454 0.26134,0.36933 0.62534,0.5532 1.08934,0.5532 0.58,0 1.008,-0.248 1.288,-0.74534 v -2.81093 c -0.272,-0.48547 -0.696,-0.7276 -1.276,-0.7276 -0.472,0 -0.84,0.18747 -1.10134,0.56147 -0.26133,0.3744 -0.39333,0.92493 -0.39333,1.65466 z m -1.42933,-0.124 c 0,-0.9932 0.23333,-1.78546 0.7,-2.37866 0.46666,-0.59214 1.08666,-0.88907 1.85866,-0.88907 0.728,0 1.30134,0.25467 1.71867,0.76253 l 0.0653,-0.64426 h 1.29334 v 6.1984 c 0,0.8376 -0.26134,1.5 -0.78267,1.9844 -0.52133,0.48546 -1.22533,0.72653 -2.112,0.72653 -0.46933,0 -0.92667,-0.0973 -1.37467,-0.29213 -0.44666,-0.1948 -0.78666,-0.45054 -1.01733,-0.76507 l 0.67867,-0.86307 c 0.44,0.52454 0.98533,0.78694 1.63066,0.78694 0.476,0 0.85334,-0.12907 1.12934,-0.388 0.27466,-0.25734 0.412,-0.63747 0.412,-1.13747 v -0.4308 c -0.412,0.46147 -0.964,0.69067 -1.65334,0.69067 -0.74933,0 -1.36133,-0.2968 -1.83466,-0.8916 -0.47467,-0.5948 -0.712,-1.4172 -0.712,-2.46934"
       style="fill:#2b398c;fill-opacity:1;fill-rule:nonzero;stroke:none;stroke-width:0.133333" />
    <path
       id="path37"
       d="m 293.46933,128.2444 h 1.63733 l -1.63733,1.79053 -1.152,-0.003 z m -0.32534,3.71613 c -0.39333,0 -0.71066,0.138 -0.95333,0.41347 -0.24133,0.27613 -0.39733,0.66053 -0.464,1.15267 h 2.73467 v -0.1068 c -0.0307,-0.48014 -0.15867,-0.84374 -0.384,-1.09014 -0.224,-0.24573 -0.53467,-0.3692 -0.93334,-0.3692 z m 0.172,5.47654 c -0.91066,0 -1.64666,-0.2864 -2.212,-0.85987 -0.56533,-0.57187 -0.848,-1.336 -0.848,-2.288 v -0.17867 c 0,-0.63693 0.12267,-1.20733 0.368,-1.70986 0.24667,-0.5016 0.59334,-0.89334 1.03867,-1.1724 0.444,-0.27974 0.94,-0.41987 1.488,-0.41987 0.86933,0 1.54267,0.27813 2.01733,0.83333 0.47467,0.5552 0.712,1.3412 0.712,2.3568 v 0.57867 h -4.17733 c 0.044,0.52813 0.22,0.94533 0.52933,1.2536 0.30934,0.30627 0.69867,0.46093 1.16667,0.46093 0.65867,0 1.19333,-0.26666 1.608,-0.7984 l 0.77333,0.73854 c -0.25733,0.3828 -0.59866,0.67866 -1.02533,0.8896 -0.42667,0.2104 -0.908,0.3156 -1.43867,0.3156"
       style="fill:#2b398c;fill-opacity:1;fill-rule:nonzero;stroke:none;stroke-width:0.133333" />
    <path
       id="path38"
       d="m 298.28266,134.18813 c 0,0.65827 0.13467,1.17347 0.40667,1.54534 0.272,0.37186 0.65066,0.55826 1.13466,0.55826 0.484,0 0.86134,-0.18906 1.13067,-0.56773 0.27067,-0.3776 0.40533,-0.93067 0.40533,-1.65987 0,-0.64533 -0.13866,-1.15826 -0.416,-1.5364 -0.27733,-0.37813 -0.656,-0.5672 -1.132,-0.5672 -0.468,0 -0.84133,0.1864 -1.116,0.5588 -0.276,0.37187 -0.41333,0.92867 -0.41333,1.6688 z m -1.43733,-0.124 c 0,-0.62706 0.12533,-1.19053 0.37333,-1.69266 0.248,-0.50267 0.59733,-0.888 1.04533,-1.1584 0.44934,-0.2692 0.96667,-0.40467 1.548,-0.40467 0.864,0 1.56267,0.27813 2.1,0.83333 0.53867,0.5552 0.828,1.29174 0.87334,2.2104 l 0.004,0.336 c 0,0.63067 -0.12,1.1932 -0.36267,1.69067 -0.24267,0.49573 -0.588,0.8796 -1.04,1.15053 -0.45067,0.27187 -0.972,0.40774 -1.56267,0.40774 -0.90133,0 -1.624,-0.3 -2.16533,-0.9 -0.54133,-0.60107 -0.81333,-1.40254 -0.81333,-2.40254 v -0.0704"
       style="fill:#2b398c;fill-opacity:1;fill-rule:nonzero;stroke:none;stroke-width:0.133333" />
    <path
       id="path39"
       d="m 305.30266,134.20013 c 0,0.64267 0.132,1.14787 0.39333,1.51454 0.26134,0.36933 0.62534,0.5532 1.09067,0.5532 0.57867,0 1.00667,-0.248 1.28667,-0.74534 v -2.81093 c -0.272,-0.48547 -0.696,-0.7276 -1.276,-0.7276 -0.472,0 -0.84,0.18747 -1.10134,0.56147 -0.26133,0.3744 -0.39333,0.92493 -0.39333,1.65466 z m -1.42933,-0.124 c 0,-0.9932 0.23333,-1.78546 0.7,-2.37866 0.46666,-0.59214 1.08666,-0.88907 1.85866,-0.88907 0.728,0 1.30134,0.25467 1.71867,0.76253 l 0.0653,-0.64426 h 1.29467 v 6.1984 c 0,0.8376 -0.26267,1.5 -0.78267,1.9844 -0.52266,0.48546 -1.22666,0.72653 -2.11333,0.72653 -0.46933,0 -0.92667,-0.0973 -1.37467,-0.29213 -0.44666,-0.1948 -0.78533,-0.45054 -1.01733,-0.76507 l 0.67867,-0.86307 c 0.44133,0.52454 0.98533,0.78694 1.63066,0.78694 0.47734,0 0.85334,-0.12907 1.12934,-0.388 0.27466,-0.25734 0.412,-0.63747 0.412,-1.13747 v -0.4308 c -0.412,0.46147 -0.964,0.69067 -1.65334,0.69067 -0.748,0 -1.36,-0.2968 -1.83466,-0.8916 -0.47467,-0.5948 -0.712,-1.4172 -0.712,-2.46934"
       style="fill:#2b398c;fill-opacity:1;fill-rule:nonzero;stroke:none;stroke-width:0.133333" />
    <path
       id="path40"
       d="m 314.45199,132.23867 c -0.18933,-0.0317 -0.38533,-0.0475 -0.58533,-0.0475 -0.65733,0 -1.1,0.25213 -1.32933,0.75627 v 4.3724 h -1.43467 v -6.3932 h 1.36933 l 0.0373,0.71506 c 0.34533,-0.5552 0.82666,-0.83333 1.44133,-0.83333 0.204,0 0.37333,0.0281 0.50667,0.0833 l -0.005,1.34694"
       style="fill:#2b398c;fill-opacity:1;fill-rule:nonzero;stroke:none;stroke-width:0.133333" />
    <path
       id="path41"
       d="m 317.54533,136.28547 c 0.284,0 0.55066,-0.0692 0.8,-0.20667 0.25066,-0.1376 0.43866,-0.32293 0.564,-0.55627 v -1.20373 h -0.77334 c -0.532,0 -0.932,0.0917 -1.19866,0.2772 -0.268,0.18533 -0.40267,0.4468 -0.40267,0.78533 0,0.276 0.0907,0.49587 0.27467,0.65894 0.184,0.16346 0.428,0.2452 0.736,0.2452 z m 1.576,1.0344 c -0.0613,-0.1224 -0.116,-0.32134 -0.16534,-0.59734 -0.456,0.4776 -1.01466,0.71454 -1.676,0.71454 -0.64266,0 -1.16666,-0.18227 -1.572,-0.54894 -0.40666,-0.36666 -0.60933,-0.8188 -0.60933,-1.3588 0,-0.68133 0.25333,-1.20426 0.75867,-1.56773 0.50666,-0.3656 1.23066,-0.54853 2.172,-0.54853 h 0.88 v -0.41867 c 0,-0.3308 -0.092,-0.59533 -0.27734,-0.79427 -0.184,-0.19893 -0.46666,-0.29853 -0.844,-0.29853 -0.328,0 -0.596,0.0819 -0.804,0.24533 -0.20933,0.1636 -0.31333,0.37094 -0.31333,0.62294 h -1.436 c 0,-0.35 0.116,-0.67814 0.348,-0.98387 0.23333,-0.30467 0.54933,-0.54427 0.94933,-0.7172 0.4,-0.17333 0.84534,-0.2604 1.33734,-0.2604 0.74933,0 1.34533,0.188 1.79066,0.56467 0.44534,0.376 0.67467,0.90466 0.68534,1.5864 v 2.88333 c 0,0.57453 0.0813,1.03333 0.24266,1.376 v 0.10107 h -1.46666"
       style="fill:#2b398c;fill-opacity:1;fill-rule:nonzero;stroke:none;stroke-width:0.133333" />
    <path
       id="path42"
       d="m 326.13733,134.06413 c 0,-0.63746 -0.12667,-1.14426 -0.38134,-1.51866 -0.25333,-0.374 -0.61733,-0.56147 -1.08933,-0.56147 -0.588,0 -1.008,0.24213 -1.26533,0.7276 v 2.8348 c 0.26133,0.49747 0.68666,0.74533 1.276,0.74533 0.45733,0 0.816,-0.1848 1.07333,-0.55306 0.25867,-0.36827 0.38667,-0.92654 0.38667,-1.67454 z m 1.42933,0.124 c 0,0.98907 -0.22267,1.77707 -0.672,2.36667 -0.44933,0.588 -1.052,0.88227 -1.80933,0.88227 -0.7,0 -1.26134,-0.2292 -1.684,-0.69067 v 3.0308 h -1.43467 v -8.85053 h 1.32267 l 0.0587,0.65 c 0.42267,-0.512 0.996,-0.76827 1.72,-0.76827 0.78,0 1.39067,0.29067 1.83467,0.87187 0.44267,0.5808 0.664,1.38706 0.664,2.41986 v 0.088"
       style="fill:#2b398c;fill-opacity:1;fill-rule:nonzero;stroke:none;stroke-width:0.133333" />
    <path
       id="path43"
       d="m 330.31866,131.624 c 0.46933,-0.54373 1.06133,-0.8156 1.77733,-0.8156 1.36267,0 2.05467,0.77813 2.07467,2.33387 v 4.1776 h -1.43733 V 133.196 c 0,-0.44173 -0.0947,-0.75373 -0.28534,-0.93707 -0.19066,-0.1828 -0.472,-0.27493 -0.84133,-0.27493 -0.576,0 -1.00533,0.25667 -1.288,0.76813 v 4.56774 h -1.436 v -9.07547 h 1.436 v 3.3796"
       style="fill:#2b398c;fill-opacity:1;fill-rule:nonzero;stroke:none;stroke-width:0.133333" />
    <path
       id="path44"
       d="m 338.38532,131.96053 c -0.39333,0 -0.71066,0.138 -0.95333,0.41347 -0.24267,0.27613 -0.39733,0.66053 -0.46533,1.15267 h 2.736 v -0.1068 c -0.0307,-0.48014 -0.15867,-0.84374 -0.384,-1.09014 -0.224,-0.24573 -0.53467,-0.3692 -0.93334,-0.3692 z m 0.172,5.47654 c -0.91066,0 -1.648,-0.2864 -2.21333,-0.85987 -0.564,-0.57187 -0.84667,-1.336 -0.84667,-2.288 v -0.17867 c 0,-0.63693 0.12267,-1.20733 0.368,-1.70986 0.24667,-0.5016 0.592,-0.89334 1.03734,-1.1724 0.444,-0.27974 0.94133,-0.41987 1.48933,-0.41987 0.86933,0 1.54267,0.27813 2.016,0.83333 0.476,0.5552 0.71333,1.3412 0.71333,2.3568 v 0.57867 h -4.17733 c 0.044,0.52813 0.22,0.94533 0.528,1.2536 0.31067,0.30627 0.7,0.46093 1.168,0.46093 0.65733,0 1.19333,-0.26666 1.60667,-0.7984 l 0.77333,0.73854 c -0.256,0.3828 -0.59733,0.67866 -1.024,0.8896 -0.428,0.2104 -0.908,0.3156 -1.43867,0.3156"
       style="fill:#2b398c;fill-opacity:1;fill-rule:nonzero;stroke:none;stroke-width:0.133333" />
    <path
       id="path45"
       d="m 345.93866,135.5824 c 0,-0.25573 -0.10534,-0.4516 -0.31734,-0.58493 -0.21066,-0.13334 -0.55866,-0.252 -1.048,-0.35467 -0.488,-0.1016 -0.896,-0.23227 -1.224,-0.3896 -0.716,-0.34627 -1.07333,-0.84947 -1.07333,-1.5068 0,-0.55147 0.232,-1.0124 0.696,-1.38227 0.46533,-0.37026 1.056,-0.55573 1.772,-0.55573 0.76533,0 1.38133,0.1896 1.85333,0.56773 0.46934,0.3776 0.70534,0.86827 0.70534,1.4708 h -1.436 c 0,-0.27546 -0.10134,-0.5052 -0.30667,-0.68853 -0.20533,-0.1828 -0.47733,-0.2744 -0.816,-0.2744 -0.31467,0 -0.57067,0.0729 -0.77067,0.21867 -0.19866,0.14586 -0.29733,0.34066 -0.29733,0.5844 0,0.2208 0.092,0.39226 0.27733,0.51453 0.184,0.122 0.55867,0.2448 1.12134,0.3688 0.564,0.12453 1.00533,0.2724 1.32666,0.44427 0.32267,0.1708 0.56,0.376 0.716,0.61613 0.156,0.2412 0.232,0.53187 0.232,0.87453 0,0.5744 -0.23733,1.04107 -0.71466,1.39734 -0.476,0.35733 -1.1,0.5344 -1.872,0.5344 -0.524,0 -0.99067,-0.0943 -1.4,-0.28227 -0.40934,-0.1896 -0.72934,-0.44947 -0.95867,-0.78027 -0.22667,-0.33066 -0.34133,-0.688 -0.34133,-1.0708 h 1.39333 c 0.02,0.34014 0.14933,0.6016 0.38533,0.7844 0.236,0.18227 0.54934,0.27454 0.94,0.27454 0.37734,0 0.66534,-0.072 0.86134,-0.21627 0.19733,-0.14373 0.296,-0.33173 0.296,-0.564"
       style="fill:#2b398c;fill-opacity:1;fill-rule:nonzero;stroke:none;stroke-width:0.133333" />
    <path
       id="path46"
       d="m 58.683865,47.175603 7.373467,1.456267 14.407733,1.540666 21.455195,-7.2292 21.99334,-5.022399 v -0.819734 l -22.20947,5.073333 -21.328132,7.183867 -14.199466,-1.516667 -7.466133,-1.476533 -25.3708,3.340667 v 0.8068 l 25.344266,-3.337067"
       style="fill:#f9b273;fill-opacity:1;fill-rule:nonzero;stroke:none;stroke-width:0.133333" />
    <path
       id="path47"
       d="m 35.387466,51.398003 26.272932,0.821867 7.023467,0.528666 13.562533,0.0604 12.182266,-4.257333 8.297336,-1.8452 21.1876,-2.962 V 42.93707 l -21.32974,2.9828 -8.374529,1.863066 -12.097333,4.224934 -13.396933,-0.05773 -7.0124,-0.528666 -26.354266,-0.825067 -0.06347,-0.0025 -1.945333,0.574933 v 0.8328 l 2.047867,-0.6036"
       style="fill:#f19f5a;fill-opacity:1;fill-rule:nonzero;stroke:none;stroke-width:0.133333" />
    <path
       id="path48"
       d="m 35.602666,52.530803 29.016666,4.736533 0.04373,0.0072 6.652533,-0.414 12.6656,-1.410933 11.599066,-4.1984 7.947339,-0.783867 20.386,-0.878133 V 48.78867 l -20.44227,0.8812 -8.019202,0.790133 -11.606266,4.199466 -12.599467,1.404134 -6.543333,0.4068 -29.203599,-4.766667 -2.159867,0.942267 v 0.868666 l 2.263067,-0.983866"
       style="fill:#e89043;fill-opacity:1;fill-rule:nonzero;stroke:none;stroke-width:0.133333" />
    <path
       id="path49"
       d="m 35.819332,54.719869 31.752,8.641734 0.09373,0.02547 6.287066,-1.3688 11.884267,-2.896266 10.8704,-4.111467 7.617735,0.2656 19.58907,1.230267 V 55.707873 L 104.3636,54.47774 96.573995,54.204807 85.600528,58.35894 73.772395,61.238673 67.686929,62.56414 35.713063,53.862673 33.339596,55.19174 v 0.909467 l 2.479733,-1.381334"
       style="fill:#e1812d;fill-opacity:1;fill-rule:nonzero;stroke:none;stroke-width:0.133333" />
    <path
       id="path50"
       d="M 36.034932,58.480269 70.675465,71.076136 97.830664,60.340669 123.9136,65.027203 V 64.214669 L 97.860398,59.532936 97.747864,59.513066 70.663065,70.220933 35.926532,57.589733 33.339599,59.322 v 0.962933 l 2.695333,-1.804667"
       style="fill:#dc741a;fill-opacity:1;fill-rule:nonzero;stroke:none;stroke-width:0.133333" />
    <path
       id="path51"
       d="m 39.817732,68.762669 c 10.512533,3.036933 15.663467,4.411867 16.989067,4.1192 l 8.029599,1.609867 25.0032,-10.178667 2.947333,-0.908266 31.126669,3.267199 v -0.884933 l -31.214136,-3.276 -3.155733,0.973867 -24.793199,10.092266 -7.878667,-1.5792 -0.140666,-0.0416 -0.1416,0.08013 c -1.052667,0.3484 -10.741733,-2.447334 -16.5276,-4.1192 -3.481733,-1.005734 -5.716667,-1.645867 -6.7224,-1.864667 v 0.898533 c 1.153067,0.273334 3.754133,1.024934 6.478133,1.811467"
       style="fill:#ab5842;fill-opacity:1;fill-rule:nonzero;stroke:none;stroke-width:0.133333" />
    <path
       id="path52"
       d="m 35.196399,77.155869 c 7.845733,1.508267 14.520266,2.6744 16.621333,1.680133 l 7.195333,0.01093 25.648933,-10.724934 3.081733,-0.704666 36.169869,1.274933 v -0.9604 l -36.198536,-1.276533 -0.06293,-0.0021 -3.243733,0.742267 -25.588133,10.691067 -7.244266,-0.01093 -0.1104,0.062 c -1.8068,1.020267 -10.745867,-0.697333 -16.088,-1.724933 -0.727067,-0.1396 -1.4068,-0.269867 -2.038,-0.388667 v 0.9772 c 0.585867,0.1104 1.2088,0.230134 1.8568,0.354667"
       style="fill:#7c415d;fill-opacity:1;fill-rule:nonzero;stroke:none;stroke-width:0.133333" />
    <path
       id="path53"
       d="m 46.810399,85.473069 6.354133,-1.566667 26.301066,-11.265733 3.202133,-0.506133 41.245869,-1.232934 v -1.04 l -41.342269,1.239067 -3.3312,0.522933 -26.365599,11.283333 -6.3808,1.5728 -0.130666,0.05213 c -2.608934,1.4724 -8.1652,1.4604 -13.023467,1.183333 v 1.041733 c 4.945867,0.276534 10.629733,0.2724 13.4708,-1.283866"
       style="fill:#543b7c;fill-opacity:1;fill-rule:nonzero;stroke:none;stroke-width:0.133333" />
    <path
       id="path54"
       d="m 41.809332,92.903202 5.5792,-3.152533 26.879199,-11.788533 49.645869,-4.514134 v -1.1244 l -49.928669,4.539067 -27.096399,11.887466 -5.6292,3.178134 c -2.502533,1.412399 -7.919733,3.139999 -7.919733,3.139999 v 1.156267 c 2.940667,-0.709333 5.7968,-1.811867 8.469733,-3.321333"
       style="fill:#2b398c;fill-opacity:1;fill-rule:nonzero;stroke:none;stroke-width:0.133333" />
    <path
       id="path55"
       d="m 49.145865,98.942268 0.2036,-0.1036 c 3.620267,-1.857866 4.6828,-2.291733 4.986,-2.392266 l 0.0296,0.0027 26.602666,-6.585466 c 0.935867,-0.03067 4.938,-0.249467 21.881729,-1.201467 7.95894,-0.447466 16.69014,-0.938133 21.06414,-1.171866 v -2.2428 c -2.9844,0.156266 -8.9792,0.491733 -21.1896,1.1776 -10.332802,0.581333 -21.012002,1.181333 -21.872935,1.204266 l -0.1344,-0.01147 -26.580266,6.580133 c -0.446267,0.04067 -1.444267,0.407866 -5.809867,2.647466 l -0.193733,0.09947 c -3.639067,1.844267 -9.3224,3.656262 -14.7932,4.409862 v 2.25787 c 0,0 11.8516,-2.66574 15.806266,-4.670399"
       style="fill:#2b398c;fill-opacity:1;fill-rule:nonzero;stroke:none;stroke-width:0.133333" />
    <path
       id="path56"
       d="m 43.423999,109.63453 c 5.430133,-1.4704 10.7916,-3.49746 13.080133,-4.6568 1.144267,-0.5808 4.049466,-1.8032 4.807866,-1.89373 l 0.0464,0.004 26.153066,-1.31253 c 0.9208,0.0224 5.234934,-0.0167 17.532266,-0.14107 6.69013,-0.0683 14.53133,-0.15 18.86987,-0.174 v -3.357865 c -3.0204,0.01667 -8.56934,0.06773 -18.90427,0.171867 -8.250532,0.08333 -16.778666,0.169866 -17.380132,0.145866 l -0.112534,-0.0093 -26.162532,1.313067 c -1.853067,0.0093 -6.323867,2.234265 -6.3692,2.257195 -4.527067,2.2948 -21.645333,6.0896 -21.645333,6.0896 v 3.34267 c 0,0 5.914533,-0.64894 10.0844,-1.77854"
       style="fill:#2b398c;fill-opacity:1;fill-rule:nonzero;stroke:none;stroke-width:0.133333" />
    <path
       id="path57"
       d="m 51.645865,118.83133 c 5.444267,-1.9828 10.958267,-4.26253 12.216133,-4.90053 1.2844,-0.65147 3.5692,-1.33173 4.392134,-1.29213 l 25.573466,3.93226 0.1516,0.0183 c 0.4776,0.0401 4.0604,0.23333 10.351462,0.57187 6.2532,0.3364 14.76774,0.79426 19.58294,1.07866 v -4.48706 c -3.31574,-0.19574 -9.11,-0.51507 -19.34227,-1.0656 -4.840666,-0.25987 -9.422932,-0.50627 -10.146799,-0.55734 l -25.584933,-3.93426 -0.152666,-0.0177 c -2.168667,-0.18133 -5.614,1.13014 -6.851467,1.75774 -2.777066,1.40786 -25.000533,9.68386 -28.495866,9.1328 v 4.5584 c 0,0 9.934933,-1.74587 18.306266,-4.79534"
       style="fill:#2b398c;fill-opacity:1;fill-rule:nonzero;stroke:none;stroke-width:0.133333" />
    <path
       id="path58"
       d="m 48.747332,133.8704 22.359466,-10.10773 c 1.228134,-0.5548 2.578133,-0.81574 3.9208,-0.75534 l 25.213602,9.19587 0.37186,0.0313 c 1.07387,0.0911 23.30054,3.43067 23.30054,3.43067 v -5.662 c 0,0 -19.77454,-2.97293 -22.4152,-3.302 l -25.280135,-9.2204 -0.371867,-0.0317 c -2.408933,-0.20214 -4.843733,0.2156 -7.045866,1.2104 l -22.359333,10.10786 c -4.134933,1.8692 -13.1016,3.2672 -13.1016,3.2672 v 5.61454 c 0,0 10.549467,-1.58227 15.407733,-3.77867"
       style="fill:#2b398c;fill-opacity:1;fill-rule:nonzero;stroke:none;stroke-width:0.133333" />
  </g>
</svg>
