<?xml version="1.0" encoding="UTF-8" standalone="no"?>
<svg
   width="800px"
   height="800px"
   viewBox="0 0 48 48"
   fill="currentColor"
   version="1.1"
   id="svg10"
   xmlns="http://www.w3.org/2000/svg"
   xmlns:svg="http://www.w3.org/2000/svg">
   <path d="m 24,12.586731 c -2.079492,0 -3.819504,1.227706 -4.761027,2.730002 -0.941522,1.502295 -1.384031,3.240715 -1.777396,5.018649 -0.786731,3.555868 -1.467539,7.297437 -2.817873,8.827071 -0.321821,0.364553 -1.456473,1.191473 -2.430441,1.771406 -0.973966,0.579932 -1.797367,0.990549 -1.797367,0.990549 a 1.8405043,1.8405043 0 0 0 -0.8247917,2.468384 1.8405043,1.8405043 0 0 0 2.4663877,0.826789 c 0,0 0.937216,-0.466309 2.039013,-1.122356 1.101798,-0.656046 2.36007,-1.425499 3.307156,-2.49834 2.584366,-2.927525 2.919099,-7.162189 3.650654,-10.468668 0.365777,-1.653239 0.807405,-3.065836 1.304089,-3.858348 0.496685,-0.792512 0.748372,-1.002532 1.641596,-1.002532 0.893224,0 1.144911,0.21002 1.641596,1.002532 0.496684,0.792512 0.938312,2.205109 1.304089,3.858348 0.731554,3.306479 1.066285,7.541143 3.650654,10.468668 0.947086,1.072844 2.205357,1.842294 3.307156,2.49834 1.101798,0.656047 2.039014,1.122356 2.039013,1.122356 a 1.8405043,1.8405043 0 0 0 2.466388,-0.826789 1.8405043,1.8405043 0 0 0 -0.824792,-2.468384 c 0,0 -0.8234,-0.410618 -1.797367,-0.990549 C 34.812768,30.353927 33.678114,29.527003 33.356296,29.162453 32.005961,27.632819 31.325154,23.89125 30.538423,20.335382 30.145058,18.557448 29.702549,16.819028 28.761027,15.316733 27.819504,13.814437 26.079493,12.586731 24,12.586731 Z"/>
</svg>
