<?xml version="1.0" encoding="UTF-8" standalone="no"?>
<svg
   width="800px"
   height="800px"
   viewBox="0 0 24 24"
   fill="currentColor"
   version="1.1"
   id="svg6"
   xmlns="http://www.w3.org/2000/svg"
   xmlns:svg="http://www.w3.org/2000/svg">
   <path d="m 17.68501,10.483367 c 0.198693,0.198686 0.497497,0.258107 0.757117,0.150597 0.259621,-0.10753 0.428857,-0.360857 0.428857,-0.6418472 V 5.8237359 c 0,-0.3836926 -0.311031,-0.6947302 -0.69473,-0.6947302 h -4.168381 c -0.281018,0 -0.534317,0.169264 -0.641861,0.4288708 -0.107544,0.2595998 -0.04807,0.5584172 0.150617,0.75711 l 1.347291,1.347311 -4.617497,4.6175175 c -0.2713057,0.271292 -0.2713057,0.711195 0,0.982487 l 0.491216,0.491244 c 0.271362,0.271361 0.711195,0.271361 0.982557,0 L 16.33772,9.1360495 Z" />
   <path d="m 6.7132063,9.2974492 c 0,-0.1918428 0.1555223,-0.3473651 0.3473651,-0.3473651 h 3.5170716 c 0.383699,0 0.69473,-0.3110446 0.69473,-0.6947302 V 7.5606238 c 0,-0.3836925 -0.311031,-0.6947302 -0.69473,-0.6947302 H 7.0605714 c -1.3429134,0 -2.4315556,1.0886422 -2.4315556,2.4315556 v 7.6420598 c 0,1.342913 1.0886422,2.431555 2.4315556,2.431555 h 7.6420316 c 1.342914,0 2.431556,-1.088642 2.431556,-2.431555 v -3.517072 c 0,-0.383699 -0.311031,-0.69473 -0.69473,-0.69473 h -0.694731 c -0.383699,0 -0.69473,0.311031 -0.69473,0.69473 v 3.517072 c 0,0.191815 -0.15555,0.347365 -0.347365,0.347365 H 7.0605714 c -0.1918428,0 -0.3473651,-0.15555 -0.3473651,-0.347365 z"/>
</svg>
