<?xml version="1.0" encoding="UTF-8" standalone="no"?>
<svg
   viewBox="0 0 599.57825 281.38872"
   height="281.38873"
   width="599.57825"
   xml:space="preserve"
   version="1.1"
   id="svg2"
   inkscape:version="1.1.2 (0a00cf5339, 2022-02-04)"
   sodipodi:docname="ign.svg"
   xmlns:inkscape="http://www.inkscape.org/namespaces/inkscape"
   xmlns:sodipodi="http://sodipodi.sourceforge.net/DTD/sodipodi-0.dtd"
   xmlns="http://www.w3.org/2000/svg"
   xmlns:svg="http://www.w3.org/2000/svg"
   xmlns:rdf="http://www.w3.org/1999/02/22-rdf-syntax-ns#"
   xmlns:cc="http://creativecommons.org/ns#"
   xmlns:dc="http://purl.org/dc/elements/1.1/"><sodipodi:namedview
     pagecolor="#ffffff"
     bordercolor="#666666"
     borderopacity="1"
     objecttolerance="10"
     gridtolerance="10"
     guidetolerance="10"
     inkscape:pageopacity="0"
     inkscape:pageshadow="2"
     inkscape:window-width="1920"
     inkscape:window-height="1011"
     id="namedview129"
     showgrid="false"
     inkscape:zoom="0.84784564"
     inkscape:cx="197.55955"
     inkscape:cy="330.24879"
     inkscape:window-x="0"
     inkscape:window-y="0"
     inkscape:window-maximized="1"
     inkscape:current-layer="svg2"
     inkscape:pagecheckerboard="0"
     fit-margin-top="0"
     fit-margin-left="0"
     fit-margin-right="0"
     fit-margin-bottom="0" /><metadata
     id="metadata8"><rdf:RDF><cc:Work
         rdf:about=""><dc:format>image/svg+xml</dc:format><dc:type
           rdf:resource="http://purl.org/dc/dcmitype/StillImage" /></cc:Work></rdf:RDF></metadata><defs
     id="defs6" /><path
     inkscape:connector-curvature="0"
     d="M 0,272.58424 H 51.500442 V 8.7997601 H 0 Z"
     style="fill:#676c70;fill-opacity:1;fill-rule:nonzero;stroke:none;stroke-width:9.4629"
     id="path11666" /><path
     inkscape:connector-curvature="0"
     id="path11670"
     style="fill:#676c70;fill-opacity:1;fill-rule:nonzero;stroke:none;stroke-width:9.4629"
     d="M 551.72803,8.8063885 V 166.82899 C 543.03745,157.17037 401.57673,0 401.57673,0 h -7.86787 v 272.59087 h 47.8313 V 116.70832 c 8.70949,9.56393 149.82033,164.67947 149.82033,164.67947 h 8.21775 V 8.8063885 Z" /><path
     inkscape:connector-curvature="0"
     d="m 284.86572,196.34554 -2.73295,-0.10416 v 27.4229 c -17.16366,6.51483 -30.28937,9.1094 -46.11966,9.1094 -56.31383,0 -92.69323,-37.7349 -92.69323,-96.1222 0,-55.413966 34.26113,-89.872512 89.39289,-89.872512 31.17829,0 56.90014,11.561936 76.44686,34.325977 l 4.26491,4.94294 3.78262,-60.082296 -1.17261,-0.8617 C 307.74114,19.053048 303.84504,17.121324 293.9251,12.699191 273.26251,3.6750101 255.72059,9.469235e-4 233.44093,9.469235e-4 c -40.058,0 -76.22936,13.9387140765 -101.84718,39.2594480765 -25.6462,25.330204 -39.755394,61.095505 -39.755394,100.695845 0,81.9657 58.309164,141.4325 138.680494,141.4325 20.13302,0 42.88551,-3.51309 62.38495,-9.65862 13.63636,-4.16647 21.27726,-7.30078 38.86647,-15.94619 l 1.48468,-0.7102 v -66.7297 l -3.53675,1.27835 c -14.02409,4.97135 -29.09785,7.2345 -44.85248,6.72316"
     style="fill:#676c70;fill-opacity:1;fill-rule:nonzero;stroke:none;stroke-width:9.4629"
     id="path11674" /><path
     inkscape:connector-curvature="0"
     d="m 274.76895,111.66028 c -0.11348,-0.0473 -0.25533,-0.0663 -0.35935,-0.11364 -32.80482,-8.52231 -66.14866,-3.68353 -90.78301,12.61303 13.65528,26.10668 40.37007,46.41819 73.08978,54.93103 0.0946,0.0189 0.26478,0.0663 0.26478,0.0663 32.81427,8.51284 66.11083,3.68353 90.73572,-12.59408 -13.59854,-26.09721 -40.25659,-46.41819 -72.94792,-54.90262"
     style="fill:#80cc28;fill-opacity:1;fill-rule:nonzero;stroke:none;stroke-width:9.4629"
     id="path11678" /></svg>
