<?xml version="1.0" encoding="UTF-8" standalone="no"?>
<svg
   width="800px"
   height="800px"
   fill="currentColor"
   viewBox="0 0 16 16"
   version="1.1"
   id="svg5"
   xmlns="http://www.w3.org/2000/svg"
   xmlns:svg="http://www.w3.org/2000/svg">
   <path d="m 12.027899,5.1229292 v 0.7296252 c 0.344098,0.1990933 0.575414,0.5708108 0.575414,0.9966173 C 12.603313,7.4844289 12.087742,8 11.452485,8 10.817228,8 10.301657,7.4844289 10.301657,6.8491717 c 0,-0.4258065 0.231316,-0.797524 0.575414,-0.9966173 V 5.4106363 c 0,-0.4764429 -0.386679,-0.8631212 -0.863121,-0.8631212 -0.4764434,0 -0.8631217,0.3866783 -0.8631217,0.8631212 v 4.8910207 0.0075 c -0.00403,1.267062 -1.0340192,2.294176 -2.3016566,2.294176 -1.2705145,0 -2.3016566,-1.031142 -2.3016566,-2.301656 v -0.0984 C 3.8771576,9.9661902 3.3966867,9.3263296 3.3966867,8.5754142 c 0,-0.9528859 0.7733567,-1.7262425 1.7262425,-1.7262425 0.9528859,0 1.7262425,0.7733566 1.7262425,1.7262425 0,0.7509154 -0.4804708,1.390776 -1.1508283,1.6278468 v 0.101848 c 0,0.05869 0.0046,0.117385 0.01381,0.175501 0.014385,0.09207 0.040279,0.182982 0.07653,0.268719 0.055815,0.132345 0.1369486,0.253757 0.2370706,0.356181 0.096094,0.0984 0.2094508,0.179529 0.3343157,0.237646 0.107027,0.05064 0.2215344,0.08459 0.3389189,0.09955 0.1260157,0.01669 0.254333,0.01208 0.3786225,-0.01266 0.107027,-0.02187 0.211177,-0.05869 0.3078466,-0.109904 0.113932,-0.06042 0.2180819,-0.139826 0.3061203,-0.234769 0.086888,-0.09322 0.1576635,-0.200244 0.2094508,-0.316478 0.040279,-0.09092 0.06905,-0.18701 0.084586,-0.28483 C 7.9953967,10.423644 8,10.362651 8,10.301657 V 5.4106363 c 0,-1.1117002 0.9022494,-2.0139496 2.01395,-2.0139496 1.013879,0 1.853409,0.7509155 1.993234,1.7262425 z M 5.1229292,8 C 4.8053006,8 4.5475151,8.2577855 4.5475151,8.5754142 c 0,0.3176286 0.2577855,0.5754141 0.5754141,0.5754141 0.3176286,0 0.5754142,-0.2577855 0.5754142,-0.5754141 C 5.6983434,8.2577855 5.4405578,8 5.1229292,8 Z" />
</svg>
