<?xml version="1.0" encoding="UTF-8" standalone="no"?>
<svg
   fill="currentColor"
   width="800px"
   height="800px"
   viewBox="0 0 32 32"
   version="1.1"
   id="svg6"
   xmlns="http://www.w3.org/2000/svg"
   xmlns:svg="http://www.w3.org/2000/svg">
  <defs
     id="defs7" />
  <path
     d="m 7.8685356,20.074387 q 0,0.422836 0.2927327,0.731832 0.2927327,0.308996 0.7318318,0.292733 h 1.0083016 q 1.0408273,0 1.9840773,-0.406573 0.94325,-0.406573 1.61003,-1.089616 0.66678,-0.683044 1.089616,-1.626293 0.422836,-0.94325 0.406573,-1.967815 0,-1.252245 0.878199,-2.146707 0.878198,-0.89446 2.162969,-0.89446 h 2.032866 v 1.008301 q 0,0.341522 0.195155,0.585465 0.195155,0.243945 0.439099,0.357785 0.243945,0.11384 0.569203,0.06505 0.325258,-0.04879 0.536677,-0.27647 l 2.032866,-2.032866 q 0.308996,-0.325258 0.292733,-0.731832 -0.01626,-0.406573 -0.292733,-0.715569 L 21.805866,9.1944881 q -0.243944,-0.227681 -0.55294,-0.2764698 -0.308995,-0.048789 -0.569202,0.065052 -0.260208,0.1138405 -0.439099,0.3577844 -0.178893,0.2439439 -0.178893,0.5692025 v 1.0245648 h -2.032866 q -1.024564,0 -1.967814,0.406573 -0.94325,0.406573 -1.626293,1.073353 -0.683043,0.66678 -1.089617,1.626293 -0.406573,0.959512 -0.39031,1.967814 0,1.268509 -0.894461,2.16297 -0.894461,0.894461 -2.1629693,0.894461 H 8.8931001 q -0.4228362,0 -0.7318318,0.292733 -0.3089957,0.292732 -0.2927327,0.715568 z m 0,-8.115201 q 0,0.422836 0.2927327,0.715569 0.2927327,0.292733 0.7318318,0.292733 h 1.0083016 q 0.7155693,0 1.3172973,0.308995 0.601728,0.308996 1.05709,0.845672 0.341522,-1.040827 1.008302,-1.870236 -1.479927,-1.317297 -3.3826893,-1.317297 H 8.8931001 q -0.4228362,0 -0.7318318,0.308995 -0.3089957,0.308996 -0.2927327,0.715569 z m 6.7979044,7.838732 q 1.4474,1.301034 3.366426,1.301034 h 2.032866 v 1.024565 q 0,0.325258 0.195155,0.585465 0.195155,0.260207 0.439099,0.357784 0.243945,0.09758 0.569203,0.04879 0.325258,-0.04879 0.536677,-0.27647 l 2.032866,-2.032866 q 0.308996,-0.308996 0.292733,-0.731832 -0.01626,-0.422836 -0.292733,-0.699305 l -2.032866,-2.032867 q -0.243944,-0.243943 -0.55294,-0.292732 -0.308995,-0.04879 -0.569202,0.06505 -0.260208,0.11384 -0.439099,0.374047 -0.178893,0.260206 -0.178893,0.569202 v 1.008302 h -2.032866 q -0.699306,0 -1.317297,-0.292733 -0.617992,-0.292733 -1.040828,-0.845672 -0.357784,1.040828 -1.008301,1.870238 z"
     id="path2"
     style="stroke-width:0.755009" />
</svg>
