<?xml version="1.0" encoding="UTF-8" standalone="no"?>
<svg
   width="800px"
   height="800px"
   viewBox="0 0 24 24"
   fill="currentColor"
   version="1.1"
   id="svg8"
   xmlns="http://www.w3.org/2000/svg"
   xmlns:svg="http://www.w3.org/2000/svg">
   <path d="m 11.992773,4.8328977 c -2.7651127,0 -5.0015098,2.2363972 -5.0015098,5.0015102 0,1.0360241 0.3072346,1.9862951 0.8359643,2.7793891 0.7716594,1.143199 1.9934675,1.950612 3.4153215,2.157816 0.242929,0.04287 0.493005,0.0643 0.750224,0.0643 0.25722,0 0.507294,-0.02144 0.750225,-0.0643 1.421854,-0.207204 2.643661,-1.014617 3.415321,-2.157816 0.528729,-0.793094 0.835965,-1.743365 0.835965,-2.7793891 0,-2.765113 -2.236398,-5.0015102 -5.001511,-5.0015102 z m 0,2.5007759 c 0.150045,0 0.300104,0.1143201 0.414424,0.3429598 l 0.421541,0.8430816 c 0.05716,0.1143199 0.207205,0.2286676 0.342959,0.2501026 l 0.764501,0.1286098 c 0.478715,0.078595 0.593049,0.4286719 0.242944,0.7787767 l -0.593021,0.5930629 c -0.10003,0.10003 -0.157217,0.292916 -0.121492,0.435817 l 0.171479,0.735947 c 0.135755,0.578745 -0.171479,0.807399 -0.685919,0.500164 l -0.714472,-0.421582 c -0.12861,-0.07859 -0.34296,-0.07859 -0.47157,0 l -0.714513,0.421582 c -0.51444,0.30009 -0.821674,0.07858 -0.685919,-0.500164 l 0.171479,-0.735947 c 0.02858,-0.135756 -0.02142,-0.335787 -0.12145,-0.435817 L 9.8064049,9.6772041 C 9.4563002,9.3270993 9.5706061,8.9770225 10.056466,8.8984274 l 0.764542,-0.1286098 c 0.12861,-0.021435 0.278641,-0.1357827 0.335801,-0.2501026 L 11.57835,7.6766334 c 0.114319,-0.2286397 0.264378,-0.3429598 0.414423,-0.3429598 z m -5.00959,6.2295424 c -0.087519,2.3e-4 -0.1745778,0.03299 -0.2425669,0.100979 l -1.5861888,1.586188 c -0.5430196,0.54302 -0.3501048,1.221795 0.1929148,1.350405 l 1.1789242,0.278654 c 0.2643648,0.0643 0.4715975,0.264351 0.5287573,0.528716 l 0.250061,1.050315 c 0.1357548,0.571599 0.8645442,0.750224 1.2432291,0.300089 l 2.1363403,-2.457864 c 0.171479,-0.200059 0.07863,-0.51444 -0.178598,-0.578745 C 9.241392,15.414718 8.1053379,14.70735 7.2693735,13.699906 7.1951326,13.610035 7.0888092,13.562937 6.983183,13.563216 Z m 9.983009,0 c -0.105626,-2.79e-4 -0.211908,0.04682 -0.286149,0.13669 -0.835964,1.007444 -1.972018,1.714812 -3.236683,2.022047 -0.25722,0.06431 -0.350118,0.378686 -0.178639,0.578745 l 2.13634,2.457864 c 0.378686,0.450135 1.107475,0.27151 1.243229,-0.300089 l 0.250104,-1.050315 c 0.05716,-0.264365 0.26435,-0.464411 0.528714,-0.528716 l 1.178925,-0.278654 c 0.543019,-0.12861 0.735934,-0.807385 0.192914,-1.350405 l -1.586188,-1.586188 c -0.06799,-0.06799 -0.155048,-0.100749 -0.242567,-0.100979 z" />
</svg>
