<?xml version="1.0" encoding="UTF-8" standalone="no"?>
<svg
   fill="currentColor"
   width="800px"
   height="800px"
   viewBox="0 0 24 24"
   id="scroll-up-down"
   class="icon line"
   version="1.1"
   xmlns="http://www.w3.org/2000/svg"
   xmlns:svg="http://www.w3.org/2000/svg">
   <path d="m 12.000001,6.3111406 c -0.331911,0 -0.663313,0.152381 -0.859312,0.4576222 L 9.7551101,8.7937412 c -0.00534,0.00832 -0.010428,0.016796 -0.015254,0.025424 -0.4036806,0.673397 0.011578,1.5767958 0.7855839,1.7084568 0.02689,0.0044 0.05411,0.0065 0.08135,0.0064 h 2.786412 c 0.02725,1.55e-4 0.05446,-0.002 0.08136,-0.0064 0.774006,-0.131661 1.189264,-1.0350598 0.785584,-1.7084568 -0.0048,-0.00863 -0.0099,-0.017106 -0.01526,-0.025424 L 12.859314,6.7687628 C 12.663315,6.4635216 12.331913,6.3111405 12.000001,6.3111406 Z m -1.393205,7.1516184 c -0.02725,-1.48e-4 -0.05446,0.0019 -0.08135,0.0064 -0.7740073,0.131661 -1.1892657,1.035059 -0.7855849,1.708456 0.00483,0.0086 0.00991,0.01711 0.015253,0.02542 l 1.3932069,2.031334 -0.0076,-0.01271 c 0.391997,0.610482 1.326626,0.610482 1.718626,0 l -0.0076,0.01271 1.393205,-2.031334 c 0.0053,-0.0083 0.01043,-0.0168 0.01526,-0.02542 0.403682,-0.673397 -0.01158,-1.576795 -0.785583,-1.708456 -0.02689,-0.0045 -0.0541,-0.0065 -0.08136,-0.0064 z" />
</svg>
