<?xml version="1.0" encoding="UTF-8" standalone="no"?>
<svg
   width="800px"
   height="800px"
   viewBox="0 0 16 16"
   fill="currentColor"
   version="1.1"
   id="svg4"
   xmlns="http://www.w3.org/2000/svg"
   xmlns:svg="http://www.w3.org/2000/svg">
   <path d="m 9.2824984,6.8587508 c 0.9454676,0 1.7118736,-0.7664344 1.7118736,-1.7118738 0,-0.9454394 -0.766406,-1.7118738 -1.7118736,-1.7118738 -0.9454394,0 -1.7118738,0.7664344 -1.7118738,1.7118738 0,0.1276544 0.013975,0.2520392 0.040469,0.371722 L 5.7837764,6.6606699 C 5.4912629,6.4274899 5.1206593,6.2881262 4.7175016,6.2881262 3.7720622,6.2881262 3.0056278,7.0545606 3.0056278,8 c 0,0.9454394 0.7664344,1.7118738 1.7118738,1.7118738 0.4031577,0 0.7737613,-0.1393465 1.0662748,-0.3725608 l 1.8273169,1.142105 c -0.026494,0.11966 -0.040469,0.244056 -0.040469,0.371705 0,0.945468 0.7664344,1.711874 1.7118738,1.711874 0.9454679,0 1.7118739,-0.766406 1.7118739,-1.711874 0,-0.9454679 -0.766406,-1.7118738 -1.7118739,-1.7118738 -0.4031463,0 -0.773767,0.1393465 -1.0662748,0.3725608 L 6.3889067,8.371722 C 6.4154008,8.2520392 6.4293754,8.1276544 6.4293754,8 c 0,-0.1276544 -0.013975,-0.2520392 -0.040469,-0.371722 L 8.2162236,6.4862071 c 0.2925078,0.2331801 0.6631285,0.3725437 1.0662748,0.3725437 z" />
</svg>
