<?xml version="1.0" encoding="UTF-8" standalone="no"?>
<svg
   fill="currentColor"
   width="800px"
   height="800px"
   viewBox="0 0 52 52"
   enable-background="new 0 0 52 52"
   xml:space="preserve"
   version="1.1"
   id="svg6"
   xmlns="http://www.w3.org/2000/svg"
   xmlns:svg="http://www.w3.org/2000/svg">
	<path d="m 29.284594,11.54762 c -0.844617,0 -1.595415,0.750798 -1.595415,1.595415 v 25.71393 c 0,0.844617 0.750798,1.595415 1.595415,1.595415 h 1.595415 c 0.844617,0 1.595415,-0.750798 1.595415,-1.595415 v -25.71393 c 0,-0.844617 -0.750798,-1.595415 -1.595415,-1.595415 z m -8.07072,4.786245 c -0.844617,0 -1.595415,0.750679 -1.595415,1.595296 v 20.927804 c 0,0.844617 0.750798,1.595415 1.595415,1.595415 h 1.595296 c 0.844617,0 1.595415,-0.750798 1.595415,-1.595415 V 17.929161 c 0,-0.844617 -0.750798,-1.595296 -1.595415,-1.595296 z M 37.26155,21.96458 c -0.844617,0 -1.595415,0.750799 -1.595415,1.595416 v 15.296969 c 0,0.844617 0.750798,1.595415 1.595415,1.595415 h 1.595415 c 0.844617,0 1.595415,-0.750798 1.595415,-1.595415 V 23.559996 c 0,-0.844617 -0.750798,-1.595416 -1.595415,-1.595416 z m -24.118515,6.475424 c -0.844617,0 -1.595415,0.750798 -1.595415,1.595416 v 8.821545 c 0,0.844617 0.750798,1.595415 1.595415,1.595415 h 1.595415 c 0.844617,0 1.595415,-0.750798 1.595415,-1.595415 V 30.03542 c 0,-0.844618 -0.750798,-1.595416 -1.595415,-1.595416 z" />
</svg>
